<svg id="Calque_1" data-name="Calque 1" xmlns="http://www.w3.org/2000/svg" viewBox="0 0 237.46 45.91">
  <defs>
    <style>
      .cls-1 {
        fill: #3d3134;
      }

      .cls-2 {
        fill: #cfcfcf;
      }
    </style>
  </defs>
  <path class="cls-1" d="M139.3,19.91c-5.87-5.81-14.69-3.71-15.13-3.58a15.13,15.13,0,0,0-10.62,9.58,16,16,0,0,0,4.83,17.88c5.54,4.42,13.47,4.15,17.88,1.32.8-.52,3.44-2.21,3.33-4.31a3.17,3.17,0,0,0-.84-1.87c-1.35-1.46-3.23-.45-3.59-.16a9.23,9.23,0,0,1-7.35,2.42,8.49,8.49,0,0,1-7.45-6.06,1.86,1.86,0,0,1,.2-1.64,3.52,3.52,0,0,1,.9-.92,3.33,3.33,0,0,1,2.05-.54c.25,0,.55,0,.87,0a4.83,4.83,0,0,0,9.56.93c2.47.28,4.69.55,5.85.69a2.48,2.48,0,0,0,1.68-.38A5.13,5.13,0,0,0,143,31.76C145,28.34,142.27,22.84,139.3,19.91Zm-5.08,8c-1.84-.31-2.57-.55-4.34-.94-3-.67-4.83.4-6.94-.87a1.32,1.32,0,0,1-.62-.67c-.32-1.06,1.42-2.58,2.79-3.3a7.6,7.6,0,0,1,4.66-.66,8.54,8.54,0,0,1,5.12,2.69,5.88,5.88,0,0,1,1.24,3C136.11,27.46,135.44,28.07,134.22,27.87Z" transform="translate(-1.27 -1.42)"/>
  <path class="cls-1" d="M153.5,31.76a5,5,0,0,0,1.5,1.56,2.49,2.49,0,0,0,1.68.38c1.16-.14,3.38-.41,5.85-.69a4.83,4.83,0,0,0,9.56-.93c.32,0,.62,0,.88,0a3.37,3.37,0,0,1,2.05.54,3.52,3.52,0,0,1,.9.92,1.86,1.86,0,0,1,.19,1.64,8.48,8.48,0,0,1-7.44,6.06,9.25,9.25,0,0,1-7.36-2.42,2.75,2.75,0,0,0-3.59.16,3.09,3.09,0,0,0-.83,1.87c-.11,2.1,2.53,3.79,3.32,4.31,4.42,2.83,12.34,3.1,17.89-1.32a16,16,0,0,0,4.83-17.88,15.13,15.13,0,0,0-10.63-9.58c-.43-.13-9.25-2.23-15.13,3.58C154.2,22.84,151.44,28.34,153.5,31.76Zm6.85-4.6a5.71,5.71,0,0,1,1.24-3,8.55,8.55,0,0,1,5.11-2.69,7.63,7.63,0,0,1,4.67.66c1.37.72,3.1,2.24,2.78,3.3a1.3,1.3,0,0,1-.61.67c-2.11,1.27-3.94.2-6.95.87-1.77.39-2.5.63-4.33.94C161,28.07,160.36,27.46,160.35,27.16Z" transform="translate(-1.27 -1.42)"/>
  <path class="cls-2" d="M1.27,5.15V30.4a17.84,17.84,0,0,0,1.88,8.16,15.42,15.42,0,0,0,4.12,5.08,16.8,16.8,0,0,0,10.5,3.51,17.25,17.25,0,0,0,10-3.33,15.3,15.3,0,0,0,5-5.94l0-.06a14.42,14.42,0,0,0,1.24-6l.05-26c0-2.29-1-4.13-3.57-4.3-3.29-.06-4.11,2.79-4,4.43l-.06,24.91a9.21,9.21,0,0,1-2.7,6.57,8.86,8.86,0,0,1-10.85,1,8.38,8.38,0,0,1-2.73-2.9,9.88,9.88,0,0,1-1.23-4.85L8.72,5.49S8.72,1.43,5,1.42H5A3.74,3.74,0,0,0,1.27,5.15Z" transform="translate(-1.27 -1.42)"/>
  <path class="cls-1" d="M85.56,39.15a5.46,5.46,0,0,1,3,.76c1.6.85,5.07,2.38,7.06-.38a2.93,2.93,0,0,0,.23-2.48,4.2,4.2,0,0,0-.33-.67c-1.1-1.67-4.25-2.33-4.25-2.33-2.06-.48-6.4-1.28-8.46-5a9.09,9.09,0,0,1-1-4.63A9.24,9.24,0,0,1,83,20.13a10.17,10.17,0,0,1,5.5-4.31,11.7,11.7,0,0,1,4.63-.69c3.33.15,7.53,1.72,8.14,4.58a3.37,3.37,0,0,1-1,3,4,4,0,0,1-3.27.82,7.49,7.49,0,0,1-1.6-.53l-.54-.25a7.52,7.52,0,0,0-2.06-.81,3.12,3.12,0,0,0-2.61.61,2.78,2.78,0,0,0-.83,2.59,2.48,2.48,0,0,0,.18.53c.59,1.21,2.23,1.66,3.14,1.92a28.47,28.47,0,0,1,6.25,2.29,9.34,9.34,0,0,1,3.75,4,9.77,9.77,0,0,1-.16,8.08,10.12,10.12,0,0,1-5.35,4.71l-.32.12c-2.25.84-9.47,1.39-13-2.28-2-2.15-.72-4-.61-4.12h0A3,3,0,0,1,85.56,39.15Z" transform="translate(-1.27 -1.42)"/>
  <path class="cls-1" d="M108,25.11" transform="translate(-1.27 -1.42)"/>
  <path class="cls-1" d="M109.21,24.29" transform="translate(-1.27 -1.42)"/>
  <path class="cls-1" d="M193.05,43.24V20.17a3.59,3.59,0,0,1,3.79-4,3.85,3.85,0,0,1,3.29,2.65,12.47,12.47,0,0,1,1.1-.87,13.06,13.06,0,0,1,7.79-2.2,13.91,13.91,0,0,1,8.75,3.63,13.25,13.25,0,0,1,4.78,10.92c0,.9,0,10.31,0,13.43,0,.81-.37,3.63-3.38,3.63-3.53,0-3.43-3.57-3.43-3.93l-.09-8.49c.1-3.69-.64-11.13-7.49-11-8.06-.08-7.91,7.36-7.91,10.68l-.07,8.73a4.08,4.08,0,0,1-1.09,2.93,3.69,3.69,0,0,1-2.49,1.08,3.44,3.44,0,0,1-2.63-1A3.85,3.85,0,0,1,193.05,43.24Z" transform="translate(-1.27 -1.42)"/>
  <path class="cls-2" d="M43.12,43.24V20.17a3.59,3.59,0,0,1,3.79-4,3.85,3.85,0,0,1,3.29,2.65,12.47,12.47,0,0,1,1.1-.87,13.08,13.08,0,0,1,7.79-2.2,14,14,0,0,1,8.76,3.63,13.27,13.27,0,0,1,4.77,10.92c0,.9,0,10.31,0,13.43,0,.81-.38,3.63-3.38,3.63-3.54,0-3.43-3.57-3.43-3.93l-.1-8.49c.1-3.69-.63-11.13-7.49-11-8.06-.08-7.91,7.36-7.9,10.68l-.08,8.73a4.08,4.08,0,0,1-1.09,2.93,3.67,3.67,0,0,1-2.48,1.08,3.43,3.43,0,0,1-2.63-1A3.83,3.83,0,0,1,43.12,43.24Z" transform="translate(-1.27 -1.42)"/>
  <path class="cls-1" d="M149.32,40.72" transform="translate(-1.27 -1.42)"/>
  <circle class="cls-1" cx="233.92" cy="42.19" r="3.54"/>
</svg>
