<svg xmlns="http://www.w3.org/2000/svg" viewBox="0 0 291.35 295">
  <defs>
    <style>
      .cls-1 {
        fill: #a959ec;
      }

      .cls-2 {
        fill: #f05a4f;
      }

      .cls-3 {
        fill: #d4effa;
      }

      .cls-4 {
        fill: #fff;
      }

      .cls-5 {
        opacity: 0.2;
      }

      .cls-6 {
        fill: #3d3134;
      }

      .cls-7 {
        fill: none;
      }
    </style>
  </defs>
  <g id="Calque_13" data-name="Calque 13">
    <g id="Calque_19" data-name="Calque 19">
      <path class="cls-1" d="M228,41.35c28.41,22.62,54.4,49.34,64.11,82.43,9.54,32.9,3,72-15.7,103.55-18.87,31.78-49.72,56.07-83.55,65.42-33.83,9.53-70.65,4.3-98.13-12-27.47-16.45-45.61-43.93-61.87-72.34-16.45-28.6-31-57.94-27.1-84.67C9.89,97.05,32.32,73.12,57.56,50c25-23.18,52.52-45.42,81.87-47.29C168.58.6,199.61,18.92,228,41.35Z" transform="translate(-5.13 -2.5)"/>
    </g>
  </g>
  <g id="Calque_17" data-name="Calque 17">
    <polygon class="cls-2" points="140.03 114.93 168.84 165.58 184.88 163.43 149.69 101.57 140.03 114.93"/>
    <polygon class="cls-2" points="135.75 168.75 119.84 140.79 96.71 154.72 97.84 161.51 107.67 178.78 113.91 181.75 135.75 168.75"/>
    <polygon class="cls-3" points="140.15 115.81 168.04 164.84 135.75 168.75 118.75 140.21 140.15 115.81"/>
  </g>
  <g id="Calque_16" data-name="Calque 16">
    <g id="Calque_18" data-name="Calque 18">
      <polygon class="cls-4" points="164.48 127.57 170.91 138.87 175.04 134.22 173.99 128.78 169.4 124.77 164.48 127.57"/>
    </g>
    <polyline class="cls-5" points="106.97 180.17 135.36 164.02 180.14 155.11 184.38 162.56 135.25 167.88 115.87 179.42 106.97 180.17"/>
    <path class="cls-6" d="M170.4,127.4a8.62,8.62,0,0,0-3.26,2.36l2.25,4a4.37,4.37,0,0,1,2-2.35,4.87,4.87,0,0,1,1-.43,4.5,4.5,0,0,1,4.31,7.58,4.39,4.39,0,0,1-.9.67,4.34,4.34,0,0,1-3,.51l2.25,4a8.24,8.24,0,0,0,2.76-1,8.78,8.78,0,0,0,.93-.61,8.5,8.5,0,0,0-8.33-14.66Z" transform="translate(-5.13 -2.5)"/>
    <path class="cls-6" d="M142.15,169.42l2,3.53a8,8,0,0,1-3,10.91l-7,3.95-6-10.48,2.89-1.65a2,2,0,0,1,.69.71l3.69,6.49L138.9,181a4.67,4.67,0,0,0,1.76-6.38l-1.85-3.25Z" transform="translate(-5.13 -2.5)"/>
    <polygon class="cls-3" points="118.85 177.25 130.97 198.55 136.54 195.37 136.8 191.78 126.17 173.09 118.85 177.25"/>
    <path class="cls-6" d="M127.13,181.23l11,19.31a2,2,0,1,1-3.47,2l-11-19.31a2,2,0,0,1,.75-2.73,2,2,0,0,1,1.52-.2A2.06,2.06,0,0,1,127.13,181.23Z" transform="translate(-5.13 -2.5)"/>
    <path class="cls-6" d="M134.44,177.07l8.68,15.25a2,2,0,1,1-3.48,2L131,179a2,2,0,0,1,.75-2.72,2,2,0,0,1,1.51-.2,2.53,2.53,0,0,1,.53.24A1.93,1.93,0,0,1,134.44,177.07Z" transform="translate(-5.13 -2.5)"/>
    <path class="cls-6" d="M141.78,190l1.66,2.92a6,6,0,0,1-2.24,8.21l-3.84,2.18a2,2,0,0,1-2.72-.75L131,196.1a3.05,3.05,0,0,1,1.14-4.14l.84-.47,4.13,7.25,1.24-.7a3,3,0,0,0,1.12-4.08l-2.65-4.66.84-.48A3,3,0,0,1,141.78,190Z" transform="translate(-5.13 -2.5)"/>
  </g>
  <g id="Calque_15" data-name="Calque 15">
    <path class="cls-6" d="M156.48,102.94l35.34,62.13a2,2,0,1,1-3.48,2L153,104.91a2,2,0,0,1,3.48-2Z" transform="translate(-5.13 -2.5)"/>
    <g>
      <path class="cls-7" d="M124.16,145.57l-17.52,10a5,5,0,0,0-1.87,6.83l9.4,16.51a5,5,0,0,0,6.8,1.87l17.53-10Z" transform="translate(-5.13 -2.5)"/>
      <polygon class="cls-7" points="137.09 167.06 165.54 163.82 139.47 117.99 122.14 140.78 137.09 167.06"/>
      <path class="cls-6" d="M189.76,164.14,175,165.83,147.23,117l9-11.83a1.82,1.82,0,0,0-.35-2.54l-.31-.24a1.83,1.83,0,0,0-2.55.35l-29.17,38.39-20.06,11.41a8,8,0,0,0-3,10.91l10.39,18.25a8,8,0,0,0,10.91,3l19.37-11,48.76-5.56a1.82,1.82,0,0,0,1.59-2l0-.39A1.81,1.81,0,0,0,189.76,164.14Zm-19.09,2.18-28.44,3.24-14.95-26.28,17.32-22.79Zm-56.5,12.56-9.4-16.51a5,5,0,0,1,1.87-6.83l17.52-10,14.34,25.21-17.53,10A5,5,0,0,1,114.17,178.88Z" transform="translate(-5.13 -2.5)"/>
    </g>
    <rect class="cls-6" x="109.96" y="174.36" width="9.17" height="4" rx="2" transform="translate(-77.35 77.21) rotate(-29.63)"/>
    <rect class="cls-6" x="106.25" y="167.83" width="9.17" height="4" rx="2" transform="translate(-74.61 74.52) rotate(-29.63)"/>
    <rect class="cls-6" x="102.55" y="161.32" width="9.17" height="4" rx="2" transform="translate(-71.88 71.83) rotate(-29.63)"/>
    <rect class="cls-6" x="184.76" y="124.66" width="8" height="4" rx="2" transform="translate(-43.07 107.4) rotate(-29.63)"/>
    <rect class="cls-6" x="193.19" y="140.14" width="8" height="4" rx="2" transform="translate(-29.4 39.42) rotate(-11.44)"/>
    <rect class="cls-6" x="175.8" y="108.9" width="8" height="4" rx="2" transform="translate(377.56 49.58) rotate(132.17)"/>
  </g>
</svg>
