<svg xmlns="http://www.w3.org/2000/svg" viewBox="0 0 290.74 291.47">
  <defs>
    <style>
      .cls-1 {
        fill: #a959ec;
      }

      .cls-2 {
        fill: #5a2989;
      }

      .cls-3 {
        fill: #c13080;
      }

      .cls-4 {
        fill: #ff76bb;
      }

      .cls-5 {
        fill: #ed4f8f;
      }

      .cls-6 {
        fill: #3d3135;
      }

      .cls-7 {
        fill: none;
      }

      .cls-8 {
        fill: #fff;
      }

      .cls-9 {
        opacity: 0.3;
      }

      .cls-10 {
        fill: #b6becc;
      }

      .cls-11 {
        fill: #456b93;
      }

      .cls-12 {
        fill: #7d8796;
      }
    </style>
  </defs>
  <g id="Background">
    <path class="cls-1" d="M43,66.36C59.09,46.1,87.28,10.61,132.07,6.41c40.46-3.78,72.81,20,102,41.43,19,14,32.8,24.11,44.22,43.19,23.52,39.32,21.28,90.36.93,129-17,32.21-42.58,48.16-52.35,54.08-5.47,3.32-69.7,41-125.44,13.37-16.36-8.11-28-22.2-51.42-50.39-26.87-32.41-40.3-48.62-44.21-69.92C-2.25,123.31,28.11,85.09,43,66.36Z" transform="translate(-4.45 -6.01)"/>
    <path class="cls-2" d="M371,208" transform="translate(-4.45 -6.01)"/>
    <path class="cls-3" d="M145.29,129.69c-.29,1.31-3,4.58-3,4.58S140,139,136,138s-5.39,1.9-5.39,1.9,2,5.4,10.19,3.75,5.76-5.54,5.76-5.54l.34-6.62-1.61-1.8" transform="translate(-4.45 -6.01)"/>
  </g>
  <g id="Calque_17" data-name="Calque 17">
    <path class="cls-4" d="M147,119.31c1.65,1,.84,5.23,0,6a2.71,2.71,0,0,0-.69,1,1.87,1.87,0,0,0-.12.48c-.27,1.69,1.65,2.5,1.81,4.53.07.93-.29,1.21-.85,2.84a18.8,18.8,0,0,0-1,5.41l1,.21-2,5.28a5.17,5.17,0,0,0,1,5.29c1.28,1.4,2.42,3.17,1.13,4.17a2.42,2.42,0,0,0-.33,3.8v1c-1.7,1.69-2,3.05-2,4,.07,1.91,1.63,2.25,2,5a15.31,15.31,0,0,1,0,3.64c-.06.48-.14.87-.2,1.16l-1.29,4.51a5.18,5.18,0,0,1-1.89,2.74l-3.78,2.8a5.26,5.26,0,0,1-2.36,1l-6.24.88a5.16,5.16,0,0,1-4-1.08L124,181.31l-1.87-1.53a5.08,5.08,0,0,0-1.59-.89l-2.81-1a5.2,5.2,0,0,1-2.7-2.14l-3.72-6a4.94,4.94,0,0,0-.73-.91l-1.72-1.73a5.13,5.13,0,0,1-1.25-2L105.88,160a5.19,5.19,0,0,1,.81-4.81l3.32-4.28a5.17,5.17,0,0,0,.54-5.47,5.18,5.18,0,0,1-.55-2.32v-6.43a5.14,5.14,0,0,1,1.77-3.89l6.08-5.33a3.65,3.65,0,0,1,.31-.24l1.75-1.32A5.2,5.2,0,0,0,122,121.7v-.59a5.18,5.18,0,0,1,1.34-3.51l3.94-4.35a5.17,5.17,0,0,1,4.35-1.68l5.34.54a14.42,14.42,0,0,1,3.41,1.78,14.85,14.85,0,0,1,4.65,5.42A2.27,2.27,0,0,1,147,119.31Z" transform="translate(-4.45 -6.01)"/>
    <path class="cls-5" d="M136.74,124.57c.29,1-1.7,2.66-3.74,3.43s-3.16.1-4,1c-1.32,1.42.29,4.06-1,5a2,2,0,0,1-2,0c-1.66-1-1.55-4.71-1.55-4.71l3.38-4.72,5.78-1C136.37,123.66,136.69,124.37,136.74,124.57Z" transform="translate(-4.45 -6.01)"/>
    <path class="cls-5" d="M139,152c2.08,1.3,3.27,3.23,3,5a3.86,3.86,0,0,1-1,2c-2.07,2.14-5.28.21-7,2-1.28,1.33-1.14,4.1,0,5,.86.68,1.93,0,4,0a11.06,11.06,0,0,1,5.38,1.44l1.91-5.14v-7.54Z" transform="translate(-4.45 -6.01)"/>
    <path class="cls-3" d="M147,167" transform="translate(-4.45 -6.01)"/>
    <path class="cls-4" d="M151.46,119.31c-1.64,1-.84,5.23,0,6a2.69,2.69,0,0,1,.7,1,2.45,2.45,0,0,1,.11.48c.28,1.69-1.64,2.5-1.81,4.53-.07.93.29,1.21.85,2.84a19.09,19.09,0,0,1,1,5.41l-1,.21,1.94,5.28a5.18,5.18,0,0,1-1,5.29c-1.29,1.4-2.42,3.17-1.14,4.17a2.42,2.42,0,0,1,.33,3.8v1c1.71,1.69,2,3.05,2,4-.07,1.91-1.63,2.25-2,5a14.88,14.88,0,0,0,0,3.64c.06.48.13.87.19,1.16l1.29,4.51a5.14,5.14,0,0,0,1.9,2.74l3.78,2.8a5.17,5.17,0,0,0,2.35,1l6.24.88a5.18,5.18,0,0,0,4-1.08l3.25-2.61,1.87-1.53a5.2,5.2,0,0,1,1.59-.89l2.82-1a5.14,5.14,0,0,0,2.69-2.14l3.72-6a4.94,4.94,0,0,1,.73-.91l1.72-1.73a5,5,0,0,0,1.25-2l1.74-5.19a5.17,5.17,0,0,0-.82-4.81l-3.31-4.28a5.15,5.15,0,0,1-.54-5.47,5.17,5.17,0,0,0,.54-2.32v-6.43a5.17,5.17,0,0,0-1.76-3.89l-6.09-5.33-.3-.24-1.76-1.32a5.17,5.17,0,0,1-2.06-4.18v-.59a5.18,5.18,0,0,0-1.34-3.51l-3.93-4.35a5.19,5.19,0,0,0-4.35-1.68l-5.34.54a14.23,14.23,0,0,0-3.41,1.78,14.9,14.9,0,0,0-4.66,5.42A2.27,2.27,0,0,0,151.46,119.31Z" transform="translate(-4.45 -6.01)"/>
    <path class="cls-5" d="M161.72,124.57c-.29,1,1.7,2.66,3.74,3.43s3.16.1,4,1c1.32,1.42-.29,4.06,1,5a2,2,0,0,0,2,0c1.67-1,1.55-4.71,1.55-4.71l-3.38-4.72-5.78-1C162.09,123.66,161.78,124.37,161.72,124.57Z" transform="translate(-4.45 -6.01)"/>
    <path class="cls-5" d="M159.46,152c-2.08,1.3-3.26,3.23-3,5a3.86,3.86,0,0,0,1,2c2.08,2.14,5.28.21,7,2,1.28,1.33,1.14,4.1,0,5-.86.68-1.92,0-4,0a11,11,0,0,0-5.37,1.44l-1.91-5.14v-7.54Z" transform="translate(-4.45 -6.01)"/>
    <path class="cls-3" d="M151.46,167" transform="translate(-4.45 -6.01)"/>
  </g>
  <g id="Calque_24" data-name="Calque 24">
    <path class="cls-5" d="M123.5,169.49c.62.41,1.24.72,1.5.51s-.41-1.5,0-2,2.91-.36,4,1c1.87,2.32-1.7,5.77,0,9,1.51,2.86,5.8,3,6,3a7.87,7.87,0,0,0,7-4,8.27,8.27,0,0,0-2-10,10.23,10.23,0,0,1,5,11.15,10.12,10.12,0,0,1-7.46,7.3l-10-.4-5.67-6.18Z" transform="translate(-4.45 -6.01)"/>
    <path class="cls-5" d="M121,160c.36.79-1,2.25-2,3s-1.26.49-2,1a5.13,5.13,0,0,0-2,5c.42,2.22,2.38,4.13,4,4,2.22-.18,2.68-4.34,6-5a1.62,1.62,0,0,1,1,0c2.62,1.09.57,11.91-1,12a4,4,0,0,1-2-.87h-3.36l-5.72-3.45-3.34-6.78,2.75-6.6,3.55-4.12c.12.08.32.21.56.34C119.51,159.69,120.7,159.35,121,160Z" transform="translate(-4.45 -6.01)"/>
    <path class="cls-5" d="M125.44,151.24c.57.65.32,1.91-.09,2.68A4.6,4.6,0,0,1,122,156c-4.15.68-6.2-3.78-9-3-2.61.73-4,6.27-3,7s3.94-3.64,8-3c.19,0,1.89.3,2,1,.22,1.44-6.56,2.15-9,7-.59,1.18-.57,1.94-1,2-1.31.18-3.36-6.66-5-13l11.46-6,3.78,4.18C122.49,150.54,124.69,150.36,125.44,151.24Z" transform="translate(-4.45 -6.01)"/>
    <path class="cls-5" d="M121,140c-1.07.16-4,.47-5-1-1.48-2.18,1.7-7.66,5-8,2.94-.3,5.41,3.48,6,3,.41-.34-1.09-2.43-2.28-6.18a28,28,0,0,1-.78-2.93l-5.44,2.22L110,137.56l1.63,8.55L116,147Z" transform="translate(-4.45 -6.01)"/>
    <path class="cls-5" d="M125.27,139.63s3.27,2.42,0,4.9-5.79.84-5,4.15S118,148,118,148l1.64-4.72,2.83-2.5,2.8-1.15" transform="translate(-4.45 -6.01)"/>
    <path class="cls-5" d="M147.8,122.77c0,1.26-1.61,2-2.66,2.14a4.09,4.09,0,0,1-2.64-.68c-3.88-2.37-3.29-6.38-6.5-8.23-2.47-1.42-6.2-1-8,1-1,1.15-1.72,3.14-1,4,1,1.23,4.12-.76,7,1,.51.31,1,.63,1,1-.15,1.48-9.48,3.09-11.77-.24l-1.34-4h0L129,111l5.9-.44L142,114l4.32,6.72A2.42,2.42,0,0,1,147.8,122.77Z" transform="translate(-4.45 -6.01)"/>
    <path class="cls-3" d="M124,141" transform="translate(-4.45 -6.01)"/>
    <path class="cls-3" d="M127,158" transform="translate(-4.45 -6.01)"/>
    <path class="cls-3" d="M145,109" transform="translate(-4.45 -6.01)"/>
    <path class="cls-3" d="M119,174" transform="translate(-4.45 -6.01)"/>
    <path class="cls-3" d="M121,183" transform="translate(-4.45 -6.01)"/>
    <path class="cls-5" d="M147.52,129.82c-.7-1-2.81-2.77-4.14-2.2a1.61,1.61,0,0,0-.8.84C142,130,144,132,144,132a7,7,0,0,1,.58,1.93,3.2,3.2,0,0,1-1.2,2.84c-2.08,1.41-6-2.1-7.38-.77-.55.52-.17,1.26-1,2s-1.63.44-2,1c-.49.76.37,2.28,1,3,2.46,2.8,8.23,1.22,9,1C147.29,137.62,149.32,132.37,147.52,129.82Z" transform="translate(-4.45 -6.01)"/>
    <path class="cls-3" d="M182,228" transform="translate(-4.45 -6.01)"/>
    <path class="cls-3" d="M129,162" transform="translate(-4.45 -6.01)"/>
    <path class="cls-5" d="M175,169.49c-.61.41-1.23.72-1.5.51s.41-1.5,0-2-2.9-.36-4,1c-1.86,2.32,1.71,5.77,0,9-1.5,2.86-5.8,3-6,3a7.88,7.88,0,0,1-7-4,8.28,8.28,0,0,1,2-10,10.22,10.22,0,0,0-5,11.15,10.1,10.1,0,0,0,7.46,7.3l10-.4,5.67-6.18Z" transform="translate(-4.45 -6.01)"/>
    <path class="cls-5" d="M177.46,160c-.36.79.95,2.25,2,3s1.26.49,2,1a5.12,5.12,0,0,1,2,5c-.41,2.22-2.38,4.13-4,4-2.22-.18-2.67-4.34-6-5a1.62,1.62,0,0,0-1,0c-2.62,1.09-.57,11.91,1,12a3.93,3.93,0,0,0,2-.87h3.36l5.73-3.45,3.33-6.78-2.75-6.6-3.54-4.12c-.13.08-.33.21-.57.34C179,159.69,177.76,159.35,177.46,160Z" transform="translate(-4.45 -6.01)"/>
    <path class="cls-5" d="M173.29,150.83a2.66,2.66,0,0,0,0,2.69,4.59,4.59,0,0,0,3.27,2.21c4.12.85,6.35-3.52,9.11-2.63,2.58.83,3.79,6.43,2.72,7.12s-3.79-3.8-7.87-3.33c-.2,0-1.91.22-2,.92-.28,1.43,6.47,2.41,8.71,7.36.54,1.2.49,2,.92,2,1.3.24,3.62-6.52,5.52-12.79L182.39,148l-3.95,4C176.26,150.26,174.07,150,173.29,150.83Z" transform="translate(-4.45 -6.01)"/>
    <path class="cls-5" d="M177.46,140c1.08.16,4,.47,5-1,1.49-2.18-1.69-7.66-5-8-2.93-.3-5.4,3.48-6,3-.41-.34,1.09-2.43,2.29-6.18a30.09,30.09,0,0,0,.77-2.93l5.44,2.22,8.5,10.45-1.62,8.55-4.38.89Z" transform="translate(-4.45 -6.01)"/>
    <path class="cls-5" d="M173.2,139.63s-3.27,2.42,0,4.9,5.79.84,5,4.15,2.23-.68,2.23-.68l-1.64-4.72-2.83-2.5-2.79-1.15" transform="translate(-4.45 -6.01)"/>
    <path class="cls-5" d="M150.66,122.77c0,1.26,1.62,2,2.66,2.14a4.07,4.07,0,0,0,2.64-.68c3.88-2.37,3.3-6.38,6.5-8.23,2.47-1.42,6.21-1,8,1,1,1.15,1.72,3.14,1,4-1,1.23-4.11-.76-7,1-.5.31-1,.63-1,1,.15,1.48,9.49,3.09,11.77-.24l1.35-4h0L169.46,111l-5.89-.44L156.46,114l-4.32,6.72A2.46,2.46,0,0,0,150.66,122.77Z" transform="translate(-4.45 -6.01)"/>
    <path class="cls-3" d="M174.46,141" transform="translate(-4.45 -6.01)"/>
    <path class="cls-3" d="M171.46,158" transform="translate(-4.45 -6.01)"/>
    <path class="cls-3" d="M153.46,109" transform="translate(-4.45 -6.01)"/>
    <path class="cls-3" d="M179.46,174" transform="translate(-4.45 -6.01)"/>
    <path class="cls-3" d="M177.46,183" transform="translate(-4.45 -6.01)"/>
    <path class="cls-5" d="M151,129.82c.69-1,2.81-2.77,4.14-2.2a1.62,1.62,0,0,1,.79.84c.64,1.49-1.42,3.54-1.42,3.54a7.2,7.2,0,0,0-.57,1.93,3.2,3.2,0,0,0,1.2,2.84c2.08,1.41,6-2.1,7.37-.77.55.52.17,1.26,1,2s1.64.44,2,1c.5.76-.36,2.28-1,3-2.45,2.8-8.23,1.22-9,1C151.17,137.62,149.15,132.37,151,129.82Z" transform="translate(-4.45 -6.01)"/>
    <path class="cls-3" d="M169.46,162" transform="translate(-4.45 -6.01)"/>
  </g>
  <g id="Calque_13" data-name="Calque 13">
    <path class="cls-6" d="M146.32,149.31" transform="translate(-4.45 -6.01)"/>
    <path class="cls-6" d="M148,131.05a1.91,1.91,0,0,0-1-1.73h0c-2-1-2,1-2,1s2.16,6.23-2,9c-3,2-5.25,1.28-5.25,1.28s-2.26-.28-2.75.72a1.29,1.29,0,0,0,0,1c.81,1.9,6.19,1.73,9.67.5a4.85,4.85,0,0,0,2.33-1.5,4.79,4.79,0,0,0,1-2.85Z" transform="translate(-4.45 -6.01)"/>
    <path class="cls-6" d="M152,148.31" transform="translate(-4.45 -6.01)"/>
    <path class="cls-6" d="M151.68,148.57" transform="translate(-4.45 -6.01)"/>
    <path class="cls-6" d="M146,149.57" transform="translate(-4.45 -6.01)"/>
    <path class="cls-6" d="M152.14,149.31" transform="translate(-4.45 -6.01)"/>
    <path class="cls-6" d="M150.46,131.05a1.91,1.91,0,0,1,1-1.73h0c2-1,2,1,2,1s-2.16,6.23,2,9c3,2,5.25,1.28,5.25,1.28s2.26-.28,2.75.72a1.29,1.29,0,0,1,0,1c-.81,1.9-6.19,1.73-9.67.5a4.85,4.85,0,0,1-2.33-1.5,4.79,4.79,0,0,1-1-2.85Z" transform="translate(-4.45 -6.01)"/>
    <path class="cls-6" d="M146.46,148.31" transform="translate(-4.45 -6.01)"/>
    <path class="cls-6" d="M146.79,148.57" transform="translate(-4.45 -6.01)"/>
    <path class="cls-6" d="M152.46,149.57" transform="translate(-4.45 -6.01)"/>
  </g>
  <g id="Calque_7" data-name="Calque 7">
    <path class="cls-6" d="M148,176.75a7.16,7.16,0,0,1-.41,2.47,11.2,11.2,0,0,1-2.59,4.09,15.16,15.16,0,0,1-16,4,12.38,12.38,0,0,1-6.75-6.18,14.13,14.13,0,0,1-1.44-4,9.35,9.35,0,0,1,.19-4.84c.66-1.89,2.7-5.1,4.64-4.75a2.58,2.58,0,0,1,1.36.75c2,4-6,4.56-1,12,2,3,6.5,3.83,10,3a10.08,10.08,0,0,0,6-4c.3-.44,3.38-5.12.83-9.29-2.14-3.49-6.44-3.7-6.83-3.71a2.46,2.46,0,0,1-2.61-1.29c-.27-.94.72-2.46,2.61-2.71,1.26-.06,5.79-.14,9,3a10.92,10.92,0,0,1,2.56,4.17,8.06,8.06,0,0,1,.44,2.71Z" transform="translate(-4.45 -6.01)"/>
    <path class="cls-6" d="M150.46,176.75a7.17,7.17,0,0,0,.42,2.47,11.18,11.18,0,0,0,2.58,4.09,15.16,15.16,0,0,0,16,4,12.38,12.38,0,0,0,6.75-6.18,14.13,14.13,0,0,0,1.44-4,9.35,9.35,0,0,0-.19-4.84c-.66-1.89-2.7-5.1-4.64-4.75a2.58,2.58,0,0,0-1.36.75c-2,4,6,4.56,1,12-2,3-6.5,3.83-10,3a10.08,10.08,0,0,1-6-4c-.3-.44-3.38-5.12-.83-9.29,2.14-3.49,6.44-3.7,6.83-3.71a2.46,2.46,0,0,0,2.61-1.29c.27-.94-.72-2.46-2.61-2.71-1.26-.06-5.79-.14-9,3a11.17,11.17,0,0,0-2.56,4.17,8.06,8.06,0,0,0-.44,2.71Z" transform="translate(-4.45 -6.01)"/>
  </g>
  <g id="Calque_8" data-name="Calque 8">
    <path class="cls-6" d="M122,176.31s-1,2-4,0a12,12,0,0,1-2.86-2.51c-1-1.27-2.79-3.71-2.14-6.49a7.1,7.1,0,0,1,3-4,8,8,0,0,1,2-1c.16,0,2.31-.31,3-2,.07-.18,1-2-2-3-2.44-.81-8.66,3.14-10,9-1.76,7.69,6,14,9,15,.82.28,2.58.88,4,0a3.13,3.13,0,0,0,1-1v-2Z" transform="translate(-4.45 -6.01)"/>
    <path class="cls-6" d="M176.46,176.31s1,2,4,0a12.12,12.12,0,0,0,2.87-2.51c1-1.27,2.79-3.71,2.13-6.49a7.1,7.1,0,0,0-3-4,7.84,7.84,0,0,0-2-1,3.89,3.89,0,0,1-3-2c-.07-.18-1-2,2-3,2.45-.81,8.67,3.14,10,9,1.76,7.69-6,14-9,15-.81.28-2.58.88-4,0a3.23,3.23,0,0,1-1-1v-2Z" transform="translate(-4.45 -6.01)"/>
  </g>
  <g id="Calque_9" data-name="Calque 9">
    <path class="cls-6" d="M123,143.31c-2.15.8-3.67,2.28-3.47,3.69.47,3.31,4.47,3.31,4.47,3.31a2,2,0,0,1,1.68,1.56c.32,4.44-7.68,4.44-10.68-3.56-1.35-3.6,4-12,10-9C127,141.31,123.33,143.31,123,143.31Z" transform="translate(-4.45 -6.01)"/>
    <path class="cls-6" d="M129,149.31" transform="translate(-4.45 -6.01)"/>
    <path class="cls-6" d="M117,149.31s-15,4-7,16c4.22,6.34,0,5,0,5s-3,1-6-8c-1.7-5.11-1-13,11.87-17.37C124.3,142.07,117,149.31,117,149.31Z" transform="translate(-4.45 -6.01)"/>
    <path class="cls-6" d="M175.46,143.31c2.16.8,3.67,2.28,3.47,3.69-.47,3.31-4.47,3.31-4.47,3.31a2,2,0,0,0-1.68,1.56c-.32,4.44,7.68,4.44,10.68-3.56,1.36-3.6-4-12-10-9C171.46,141.31,175.13,143.31,175.46,143.31Z" transform="translate(-4.45 -6.01)"/>
    <path class="cls-6" d="M169.46,149.31" transform="translate(-4.45 -6.01)"/>
    <path class="cls-6" d="M181.46,149.31s15,4,7,16c-4.22,6.34,0,5,0,5s3,1,6-8c1.71-5.11,1-13-11.87-17.37C174.17,142.07,181.46,149.31,181.46,149.31Z" transform="translate(-4.45 -6.01)"/>
  </g>
  <g id="Calque_15" data-name="Calque 15">
    <path class="cls-6" d="M140,153.31a2.19,2.19,0,0,1,3,1,4.38,4.38,0,0,1,1,3,2.49,2.49,0,0,0,3.12,2.41,1.28,1.28,0,0,0,.88-1.25v-4.11a3.72,3.72,0,0,0-1.11-2.67,11.63,11.63,0,0,0-3.89-2.38C138,148.31,138,154.31,140,153.31Z" transform="translate(-4.45 -6.01)"/>
    <path class="cls-6" d="M158.46,153.31a2.19,2.19,0,0,0-3,1,4.38,4.38,0,0,0-1,3,2.49,2.49,0,0,1-3.12,2.41,1.28,1.28,0,0,1-.88-1.25v-4.11a3.69,3.69,0,0,1,1.12-2.67,11.54,11.54,0,0,1,3.88-2.38C160.46,148.31,160.46,154.31,158.46,153.31Z" transform="translate(-4.45 -6.01)"/>
  </g>
  <g id="Calque_11" data-name="Calque 11">
    <path class="cls-6" d="M127,129.31a5,5,0,0,1,6-3c1.54.77,3.79-.37,3.74-1.74a2,2,0,0,0-.74-1.26c-2.51-2.11-10.89-1.81-13,3-1.23,2.81-.2,6.87,2,8,.74.39,2.19.73,3,0a2,2,0,0,0,.57-1.87C128.3,131.4,126.4,131.11,127,129.31Z" transform="translate(-4.45 -6.01)"/>
    <path class="cls-6" d="M171.46,129.31a5,5,0,0,0-6-3c-1.53.77-3.79-.37-3.74-1.74a2,2,0,0,1,.74-1.26c2.52-2.11,10.89-1.81,13,3,1.24,2.81.2,6.87-2,8-.74.39-2.18.73-3,0a2,2,0,0,1-.56-1.87C170.17,131.4,172.06,131.11,171.46,129.31Z" transform="translate(-4.45 -6.01)"/>
  </g>
  <g id="Calque_12" data-name="Calque 12">
    <line class="cls-7" x1="145.88" y1="117.3" x2="145.88" y2="115.3"/>
    <line class="cls-7" x1="145.88" y1="133.89" x2="145.88" y2="125.22"/>
    <line class="cls-7" x1="145.88" y1="172.86" x2="145.88" y2="165.95"/>
    <line class="cls-7" x1="143.55" y1="115.3" x2="143.55" y2="117.3"/>
    <line class="cls-7" x1="143.55" y1="125.22" x2="143.55" y2="133.89"/>
    <line class="cls-7" x1="143.55" y1="165.95" x2="143.55" y2="172.86"/>
    <path class="cls-6" d="M148,121.92a1.77,1.77,0,0,1-.2.85,2.79,2.79,0,0,1-1.8,1.54,2.13,2.13,0,0,1-1,0,3.28,3.28,0,0,1-2-3s-1-9-9.92-8c-4.62.49-9.41,4.29-9.08,8a4.84,4.84,0,0,0,1.06,2.55,8,8,0,0,0,.63.74l-.36,3.48a1.49,1.49,0,0,1-2.66.77l-.18-.24q-.31-.41-.6-.84a14,14,0,0,1-1.73-3.49,9.51,9.51,0,0,1,1.38-8.81c3.44-4.86,10.17-8,16.46-6.16a15.94,15.94,0,0,1,9.77,10.21,5.52,5.52,0,0,1,.23,1.62Z" transform="translate(-4.45 -6.01)"/>
    <path class="cls-6" d="M112,123.31" transform="translate(-4.45 -6.01)"/>
    <path class="cls-6" d="M122.58,127.56s-9.84,2.47-11,11.59c-.63,5.16,2.25,6.53,2.25,6.53l-4,3.63s-3.45-2-2.83-10c1-13,16-18,16.42-13.41S122.58,127.56,122.58,127.56Z" transform="translate(-4.45 -6.01)"/>
    <line class="cls-7" x1="143.55" y1="115.3" x2="143.55" y2="117.3"/>
    <line class="cls-7" x1="143.55" y1="125.22" x2="143.55" y2="133.89"/>
    <line class="cls-7" x1="143.55" y1="165.95" x2="143.55" y2="172.86"/>
    <line class="cls-7" x1="145.88" y1="117.3" x2="145.88" y2="115.3"/>
    <line class="cls-7" x1="145.88" y1="133.89" x2="145.88" y2="125.22"/>
    <line class="cls-7" x1="145.88" y1="172.86" x2="145.88" y2="165.95"/>
    <line class="cls-7" x1="143.23" y1="117.56" x2="143.23" y2="115.56"/>
    <line class="cls-7" x1="143.23" y1="134.15" x2="143.23" y2="125.48"/>
    <line class="cls-7" x1="143.23" y1="173.12" x2="143.23" y2="166.21"/>
    <line class="cls-7" x1="145.55" y1="115.56" x2="145.55" y2="117.56"/>
    <line class="cls-7" x1="145.55" y1="125.48" x2="145.55" y2="134.15"/>
    <line class="cls-7" x1="145.55" y1="166.21" x2="145.55" y2="173.12"/>
    <path class="cls-6" d="M186,121.57" transform="translate(-4.45 -6.01)"/>
    <line class="cls-7" x1="145.55" y1="115.56" x2="145.55" y2="117.56"/>
    <line class="cls-7" x1="145.55" y1="125.48" x2="145.55" y2="134.15"/>
    <line class="cls-7" x1="145.55" y1="166.21" x2="145.55" y2="173.12"/>
    <line class="cls-7" x1="143.23" y1="117.56" x2="143.23" y2="115.56"/>
    <line class="cls-7" x1="143.23" y1="134.15" x2="143.23" y2="125.48"/>
    <line class="cls-7" x1="143.23" y1="173.12" x2="143.23" y2="166.21"/>
    <line class="cls-7" x1="143.69" y1="117.3" x2="143.69" y2="115.3"/>
    <line class="cls-7" x1="143.69" y1="133.89" x2="143.69" y2="125.22"/>
    <line class="cls-7" x1="143.69" y1="172.86" x2="143.69" y2="165.95"/>
    <line class="cls-7" x1="146.02" y1="115.3" x2="146.02" y2="117.3"/>
    <line class="cls-7" x1="146.02" y1="125.22" x2="146.02" y2="133.89"/>
    <line class="cls-7" x1="146.02" y1="165.95" x2="146.02" y2="172.86"/>
    <path class="cls-6" d="M150.46,121.92a1.9,1.9,0,0,0,.2.85,2.81,2.81,0,0,0,1.8,1.54,2.13,2.13,0,0,0,1,0,3.28,3.28,0,0,0,2-3s1-9,9.92-8c4.62.49,9.41,4.29,9.08,8a4.84,4.84,0,0,1-1.06,2.55,8,8,0,0,1-.63.74l.36,3.48a1.49,1.49,0,0,0,2.66.77l.18-.24q.32-.41.6-.84a14,14,0,0,0,1.73-3.49,9.51,9.51,0,0,0-1.38-8.81c-3.44-4.86-10.17-8-16.46-6.16a15.91,15.91,0,0,0-9.76,10.21,5.21,5.21,0,0,0-.24,1.62Z" transform="translate(-4.45 -6.01)"/>
    <path class="cls-6" d="M186.46,123.31" transform="translate(-4.45 -6.01)"/>
    <path class="cls-6" d="M175.88,127.56s9.85,2.47,11,11.59c.62,5.16-2.25,6.53-2.25,6.53l4,3.63s3.45-2,2.83-10c-1-13-16-18-16.41-13.41S175.88,127.56,175.88,127.56Z" transform="translate(-4.45 -6.01)"/>
    <line class="cls-7" x1="146.02" y1="115.3" x2="146.02" y2="117.3"/>
    <line class="cls-7" x1="146.02" y1="125.22" x2="146.02" y2="133.89"/>
    <line class="cls-7" x1="146.02" y1="165.95" x2="146.02" y2="172.86"/>
    <line class="cls-7" x1="143.69" y1="117.3" x2="143.69" y2="115.3"/>
    <line class="cls-7" x1="143.69" y1="133.89" x2="143.69" y2="125.22"/>
    <line class="cls-7" x1="143.69" y1="172.86" x2="143.69" y2="165.95"/>
    <line class="cls-7" x1="146.34" y1="117.56" x2="146.34" y2="115.56"/>
    <line class="cls-7" x1="146.34" y1="134.15" x2="146.34" y2="125.48"/>
    <line class="cls-7" x1="146.34" y1="173.12" x2="146.34" y2="166.21"/>
    <line class="cls-7" x1="144.02" y1="115.56" x2="144.02" y2="117.56"/>
    <line class="cls-7" x1="144.02" y1="125.48" x2="144.02" y2="134.15"/>
    <line class="cls-7" x1="144.02" y1="166.21" x2="144.02" y2="173.12"/>
    <line class="cls-7" x1="144.02" y1="115.56" x2="144.02" y2="117.56"/>
    <line class="cls-7" x1="144.02" y1="125.48" x2="144.02" y2="134.15"/>
    <line class="cls-7" x1="144.02" y1="166.21" x2="144.02" y2="173.12"/>
    <line class="cls-7" x1="146.34" y1="117.56" x2="146.34" y2="115.56"/>
    <line class="cls-7" x1="146.34" y1="134.15" x2="146.34" y2="125.48"/>
    <line class="cls-7" x1="146.34" y1="173.12" x2="146.34" y2="166.21"/>
  </g>
  <g id="Calque_19" data-name="Calque 19">
    <circle class="cls-6" cx="144.88" cy="204.3" r="9"/>
    <circle class="cls-8" cx="144.88" cy="204.3" r="5"/>
    <g id="Calque_23" data-name="Calque 23">
      <path class="cls-9" d="M146,192.75s-8.35,3.88-1.68,5.56-3.67,3.32-4,3S137,196,137,196l3-5Z" transform="translate(-4.45 -6.01)"/>
      <rect class="cls-10" x="134.55" y="183.99" width="21" height="7"/>
      <rect class="cls-10" x="134.55" y="192.99" width="21" height="7"/>
      <path class="cls-11" d="M145,190" transform="translate(-4.45 -6.01)"/>
      <path class="cls-12" d="M143.24,196.74c-1.24,0-2.36-1.47-.24-3.47L139.81,192l-2.25,3.91.67.83H138V200h22v-3.26Z" transform="translate(-4.45 -6.01)"/>
      <path class="cls-12" d="M143.24,205.74c-1.24,0-2.36-1.47-.24-3.47L139.81,201l-2.25,3.91.67.83H138V209h22v-3.26Z" transform="translate(-4.45 -6.01)"/>
    </g>
    <g id="Calque_18" data-name="Calque 18">
      <path class="cls-6" d="M156.82,189.31H141.5a6.5,6.5,0,1,0,0,13h15.32a6.51,6.51,0,0,0,4.6-1.9l.09-.1a6.5,6.5,0,0,0-4.69-11Zm-15.16,9a2.5,2.5,0,1,1,0-5H157a2.5,2.5,0,1,1,0,5Z" transform="translate(-4.45 -6.01)"/>
      <path class="cls-6" d="M161.51,200.31a6.49,6.49,0,0,0-4.69-2h-15a6.51,6.51,0,0,0-4.6,1.9l-.25.27a6.5,6.5,0,0,0,4.85,10.83h15a6.5,6.5,0,0,0,4.69-11Zm-2.75,6.27a2.52,2.52,0,0,1-1.77.73H141.66a2.5,2.5,0,1,1,0-5H157a2.5,2.5,0,0,1,1.77,4.27Z" transform="translate(-4.45 -6.01)"/>
    </g>
    <rect class="cls-6" x="139.55" y="148.99" width="4" height="37.65" rx="2"/>
    <rect class="cls-6" x="143" y="180" width="4" height="10.91" rx="2" transform="translate(285.55 364.89) rotate(-180)"/>
    <rect class="cls-6" x="150.46" y="155" width="4" height="37.65" rx="2" transform="translate(300.48 341.63) rotate(-180)"/>
    <rect class="cls-6" x="147.02" y="173.99" width="4" height="10.91" rx="2"/>
  </g>
  <g id="Calque_22" data-name="Calque 22">
    <rect class="cls-8" x="142.55" y="69.99" width="4" height="14" rx="2"/>
    <rect class="cls-8" x="100" y="97" width="4" height="14" rx="2" transform="translate(-48.11 96.57) rotate(-45)"/>
    <rect class="cls-8" x="194.46" y="97" width="4" height="14" rx="2" transform="translate(257.4 310.45) rotate(-135)"/>
    <rect class="cls-8" x="102" y="189" width="4" height="14" rx="2" transform="translate(34.5 402.12) rotate(-135)"/>
    <rect class="cls-8" x="82" y="143" width="4" height="14" rx="2" transform="translate(-70.45 227.99) rotate(-90)"/>
    <rect class="cls-8" x="193" y="189" width="4" height="14" rx="2" transform="translate(-85.93 189.28) rotate(-45)"/>
    <rect class="cls-8" x="213" y="143" width="4" height="14" rx="2" transform="translate(60.55 358.99) rotate(-90)"/>
  </g>
</svg>
