<svg xmlns="http://www.w3.org/2000/svg" viewBox="0 0 293.34 291.63">
  <defs>
    <style>
      .cls-1 {
        fill: #ec5971;
      }

      .cls-2 {
        fill: #d6d5da;
      }

      .cls-3 {
        fill: #3d3134;
      }

      .cls-4 {
        fill: #ed6263;
      }
    </style>
  </defs>
  <g id="Background">
    <path class="cls-1" d="M215,24.63c19.2,14.3,32.93,35,48.43,56.32,15.33,21.54,32.59,43.78,33.82,66.73,1.06,22.95-13.74,46.61-27.65,70.62-13.92,24.19-26.95,48.73-47.38,62.5-20.43,13.95-48.09,16.95-73.63,13.25-25.71-3.89-49-14.66-71.86-27.19-22.9-12.36-45.26-26.49-58.3-46.61C5.61,199.94,2.09,173.46,4.91,148.57c2.64-24.9,11.8-48.2,24.66-68.51A173,173,0,0,1,79.41,28.69C99.49,14.91,122.92,5,147.05,4A108.74,108.74,0,0,1,215,24.63Z" transform="translate(-4 -3.87)"/>
  </g>
  <g id="Calque_8" data-name="Calque 8">
    <polygon class="cls-2" points="106.78 128.13 184.11 128.13 164.78 160.35 126.44 160.35 106.78 128.13"/>
  </g>
  <g id="Calque_7" data-name="Calque 7">
    <path class="cls-3" d="M189.55,130.33a2,2,0,0,0-1.13-.28A1.93,1.93,0,0,0,188,130H112l-.24,0-2.43-4h61.34a2,2,0,0,0,0-4H106.92l-4.45-7.36a2,2,0,0,0-1.84-1l-.25,0h-8a2,2,0,0,0,0,4h7.3l28.73,47.59a1.65,1.65,0,0,0,.38.45l.08.08.09.06a1.93,1.93,0,0,0,1.26.46h38.75l.19,0h0l.22,0a2,2,0,0,0,1.36-.93l19.47-32.27A2,2,0,0,0,189.55,130.33Zm-38,32V150.16h9l-3.54,12.15Zm-9.74,0-3.54-12.15h9.28v12.15Zm-4.7-16.15L133.6,134h14v12.16Zm14.44,0V134h13.73l-3.54,12.16ZM129.44,134,133,146.16H121.49L114.16,134Zm-5.53,16.16h10.23l3.54,12.15h-6.44Zm44,12.15h-6.68l3.54-12.15h10.48Zm9.75-16.15H165.94L169.48,134H185Z" transform="translate(-4 -3.87)"/>
  </g>
  <g id="Calque_9" data-name="Calque 9">
    <circle class="cls-3" cx="132.78" cy="173.46" r="7"/>
    <circle class="cls-4" cx="132.78" cy="173.46" r="3"/>
    <circle class="cls-3" cx="158.11" cy="173.46" r="7"/>
    <circle class="cls-4" cx="158.11" cy="173.46" r="3"/>
  </g>
</svg>
