<svg xmlns="http://www.w3.org/2000/svg" viewBox="0 0 292.67 287.95">
  <defs>
    <style>
      .cls-1 {
        fill: #a959ec;
      }

      .cls-2 {
        fill: #8977f2;
      }

      .cls-3 {
        fill: #fff;
      }

      .cls-4 {
        fill: #97a2b8;
      }

      .cls-5, .cls-6 {
        fill: #3d3134;
      }

      .cls-6 {
        opacity: 0.16;
      }
    </style>
  </defs>
  <g id="Background">
    <path class="cls-1" d="M14.8,107c9.08-19.68,21-33.36,46.47-60,18.14-19,27.34-28.37,35.57-32.76,45.42-24.25,114-1.9,138.33,35.94,3.77,5.87,2.87,6.5,8.39,15.32,20.65,33,42.22,32.71,49.89,52.73,8.73,22.8,2.17,44.55-7.8,77.65-9.13,30.31-15.9,49.42-34.73,67.92-27.12,26.63-62.59,28-69,28.25-17.19.75-42-9.19-91.78-29.07-32.39-12.94-38.26-16.78-43.51-21C18.19,219.17,10.12,187.56,8,179.27A111.19,111.19,0,0,1,14.8,107Z" transform="translate(-4.85 -4.08)"/>
  </g>
  <g id="Calque_9" data-name="Calque 9">
    <rect class="cls-2" x="92.15" y="99.92" width="116" height="22"/>
    <rect class="cls-3" x="91.15" y="122.92" width="117" height="66"/>
  </g>
  <g id="Calque_6" data-name="Calque 6">
    <polygon class="cls-4" points="210.32 155.94 201.08 150.56 200.39 145.44 190.04 145.44 188.8 150.56 182.18 153.85 177.82 150.56 170.59 159.21 173.91 162.13 169.77 170.4 164.66 170.4 164.66 181.44 170.59 182.82 174.73 189.44 202.87 190.26 208.66 190.26 210.32 155.94"/>
    <path class="cls-5" d="M212,101H98a4,4,0,0,0-4,4v87a4,4,0,0,0,4,4H212a4,4,0,0,0,4-4V105A4,4,0,0,0,212,101Zm0,89a2,2,0,0,1-2,2H100a2,2,0,0,1-2-2V107a2,2,0,0,1,2-2H210a2,2,0,0,1,2,2Z" transform="translate(-4.85 -4.08)"/>
  </g>
  <g id="Calque_7" data-name="Calque 7">
    <rect class="cls-5" x="93.15" y="120.92" width="114" height="4"/>
    <rect class="cls-5" x="101.15" y="108.92" width="53" height="4" rx="2"/>
    <rect class="cls-5" x="118.53" y="146.5" width="21.95" height="4" rx="2" transform="translate(318.01 106.52) rotate(120)"/>
    <rect class="cls-5" x="105.15" y="158.92" width="40" height="4" rx="2"/>
    <rect class="cls-5" x="105.15" y="166.92" width="12" height="4" rx="2"/>
    <rect class="cls-5" x="124.15" y="166.92" width="21" height="4" rx="2"/>
    <rect class="cls-5" x="106" y="143" width="14" height="4" rx="2" transform="translate(-74.29 118.29) rotate(-45)"/>
    <rect class="cls-5" x="106" y="150.08" width="14" height="4" rx="2" transform="translate(80.51 335.44) rotate(-135)"/>
    <rect class="cls-5" x="138.67" y="143.04" width="14" height="4" rx="2" transform="translate(141.26 346.51) rotate(-135)"/>
    <rect class="cls-5" x="138.67" y="150.12" width="14" height="4" rx="2" transform="translate(-69.75 143.48) rotate(-45)"/>
    <rect class="cls-5" x="180.15" y="109.92" width="4" height="4"/>
    <rect class="cls-5" x="188.15" y="109.92" width="4" height="4"/>
    <rect class="cls-5" x="196.15" y="109.92" width="4" height="4"/>
    <rect class="cls-6" x="91.15" y="99.92" width="20" height="88"/>
    <path class="cls-5" d="M212.69,156.22a26.63,26.63,0,0,0-5-2.09,25.72,25.72,0,0,0-3.31-.78v3.37a21.78,21.78,0,0,1,3.24.88,23.35,23.35,0,0,1,5,2.47,23.83,23.83,0,0,1,3.31,2.6v-4.33A27,27,0,0,0,212.69,156.22ZM177.6,187.65a21.78,21.78,0,0,1-.88-3.24h-3.37a25.72,25.72,0,0,0,.78,3.31,26.63,26.63,0,0,0,2.09,5,27,27,0,0,0,2.12,3.31h4.33a23.83,23.83,0,0,1-2.6-3.31A23.35,23.35,0,0,1,177.6,187.65Zm1.08-24.36a25.77,25.77,0,0,0-1.91,2.78,26.9,26.9,0,0,0-2.88,6.76,27.31,27.31,0,0,0-.67,3.31h3.35a22.62,22.62,0,0,1,.77-3.3,23.78,23.78,0,0,1,3.7-7.19Zm14.15-9.4a26.24,26.24,0,0,0-5.17,2,25.39,25.39,0,0,0-2.93,1.74l2.39,2.39a22.44,22.44,0,0,1,3-1.64,20.72,20.72,0,0,1,2.71-1,22.62,22.62,0,0,1,3.3-.77v-3.35A27.31,27.31,0,0,0,192.83,153.89Z" transform="translate(-4.85 -4.08)"/>
    <path class="cls-5" d="M207.72,149.66v7.44a1.63,1.63,0,0,1-.07.5,21.78,21.78,0,0,0-3.24-.88v-5.41h-8.27v5.26a22.62,22.62,0,0,0-3.3.77c0-.08,0-.15,0-.24v-7.44a1.65,1.65,0,0,1,1.65-1.66h11.59A1.65,1.65,0,0,1,207.72,149.66Z" transform="translate(-4.85 -4.08)"/>
    <path class="cls-5" d="M177.6,187.65a1.63,1.63,0,0,1-.5.07h-7.44a1.65,1.65,0,0,1-1.66-1.65V174.48a1.65,1.65,0,0,1,1.66-1.65h7.68a22.62,22.62,0,0,0-.77,3.3h-5.26v8.27h5.41A21.78,21.78,0,0,0,177.6,187.65Z" transform="translate(-4.85 -4.08)"/>
    <path class="cls-5" d="M190.13,158.38a22.44,22.44,0,0,0-3,1.64l-3.59-3.58-5.85,5.85,3.36,3.36a23,23,0,0,0-1.84,2.84l-5-5a1.65,1.65,0,0,1,0-2.34l8.19-8.2a1.67,1.67,0,0,1,2.34,0l3,3L190,158.2A.93.93,0,0,1,190.13,158.38Z" transform="translate(-4.85 -4.08)"/>
  </g>
</svg>
