<svg xmlns="http://www.w3.org/2000/svg" viewBox="0 0 294.4 292.79">
  <defs>
    <style>
      .cls-1 {
        fill: #4addff;
      }

      .cls-2 {
        fill: #fff;
      }

      .cls-3 {
        fill: #ed6263;
      }

      .cls-4, .cls-5 {
        fill: #3d3134;
      }

      .cls-4 {
        opacity: 0.16;
      }

      .cls-6 {
        opacity: 0.1;
      }

      .cls-7 {
        fill: none;
      }
    </style>
  </defs>
  <g id="Bubble">
    <path id="Background" class="cls-1" d="M297.89,142.3c2.71,24.24-12.41,47.1-30.71,75.58a186.82,186.82,0,0,1-54,54.81c-22.35,14.64-48.87,25.94-73.9,22.95-24.92-2.83-48.42-19.67-73.49-37.1S13.86,223.19,6.34,199.1c-7.68-24,3.94-54.14,10.31-87.15C20.6,91.46,44.46,44,96.86,19.21,136.55.4,197-5.75,226.75,23.56,239,35.64,233.1,41,252.42,74.19,278.88,119.69,295.26,118.8,297.89,142.3Z" transform="translate(-3.81 -3.34)"/>
  </g>
  <g id="Background-2" data-name="Background">
    <polygon class="cls-2" points="193.75 109.66 193.75 124.66 176.42 124.66 190.19 110.11 193.75 109.66"/>
    <polygon class="cls-2" points="116.19 109.66 98.19 109.66 97.86 123.66 104.19 123.66 116.19 109.66"/>
    <polygon class="cls-3" points="165.31 110.91 150.51 126.66 173.61 126.66 190.19 108.66 165.31 110.91"/>
    <polygon class="cls-3" points="118.97 110.8 104.19 126.66 127.42 126.66 142.19 109.66 118.97 110.8"/>
    <polygon class="cls-2" points="143.95 108.47 128.19 124.66 149.33 124.66 165.19 109.66 143.95 108.47"/>
    <rect id="background-3" data-name="background" class="cls-2" x="99.19" y="125.66" width="96" height="59"/>
  </g>
  <g id="triangle">
    <path class="cls-4" d="M161.62,160.68s0-.07,0-.1a1.55,1.55,0,0,0-.07-.23v0a1.43,1.43,0,0,0-.63-.75L158.28,158a15.29,15.29,0,0,1-3.55,1.41l2.38,1.42-8.84,5.26v-1a16,16,0,0,1-3.15,1.83v1.67a1.33,1.33,0,0,0,0,.28,1.52,1.52,0,0,0,.23.72,1.63,1.63,0,0,0,2.17.47l13.35-7.94a1.43,1.43,0,0,0,.63-.75v0c0-.08.05-.16.07-.23s0-.07,0-.11a.81.81,0,0,0,0-.16A.86.86,0,0,0,161.62,160.68Z" transform="translate(-3.81 -3.34)"/>
    <polygon class="cls-3" points="138.69 146.26 138.69 163.92 153.96 154.25 138.69 146.26"/>
    <path class="cls-5" d="M161,158s0-.09,0-.13a2.43,2.43,0,0,0,0-.44s0-.09,0-.13A1.57,1.57,0,0,0,161,157v0a2,2,0,0,0-.81-1l-16.94-10.63a2,2,0,0,0-2.76.63,1.88,1.88,0,0,0-.28.8,2,2,0,0,0-.05.43V168a1.64,1.64,0,0,0,0,.38,1.89,1.89,0,0,0,.29,1,2,2,0,0,0,2.76.63l16.94-10.63a2,2,0,0,0,.81-1v0A1.57,1.57,0,0,0,161,158ZM144.1,150.6l11.22,7-11.22,7Z" transform="translate(-3.81 -3.34)"/>
  </g>
  <g id="shadow">
    <rect class="cls-6" x="190.19" y="134.66" width="4" height="51" rx="2"/>
    <rect class="cls-6" x="99.19" y="109.66" width="14" height="75"/>
  </g>
  <g id="border">
    <g>
      <polygon class="cls-7" points="149.37 123.66 161.37 111.66 143.02 111.66 131.02 123.66 149.37 123.66"/>
      <polygon class="cls-7" points="173.37 123.66 185.37 111.66 167.02 111.66 155.02 123.66 173.37 123.66"/>
      <path class="cls-7" d="M185,127h12V117a2,2,0,0,0-2-2h-.17l-12,12Z" transform="translate(-3.81 -3.34)"/>
      <path class="cls-7" d="M117.17,115H106a2,2,0,0,0-2,2v10h1.17Z" transform="translate(-3.81 -3.34)"/>
      <polygon class="cls-7" points="125.36 123.66 137.37 111.66 119.02 111.66 107.02 123.66 125.36 123.66"/>
      <path class="cls-5" d="M197,131a4,4,0,0,0,4-4V115a4,4,0,0,0-4-4H104a4,4,0,0,0-4,4v72a4,4,0,0,0,4,4h93a4,4,0,0,0,4-4V143a2,2,0,0,0-4,0v42a2,2,0,0,1-2,2H106a2,2,0,0,1-2-2V131Zm-2-16a2,2,0,0,1,2,2v10H182.83l12-12Zm-5.83,0-12,12H158.83l12-12Zm-24,0-12,12H134.83l12-12Zm-24,0-12,12H110.83l12-12ZM104,117a2,2,0,0,1,2-2h11.17l-12,12H104Z" transform="translate(-3.81 -3.34)"/>
    </g>
  </g>
</svg>
