<svg xmlns="http://www.w3.org/2000/svg" viewBox="0 0 292.24 288.72">
  <defs>
    <style>
      .cls-1 {
        fill: #5a2989;
      }

      .cls-2 {
        fill: #4addff;
      }

      .cls-3 {
        fill: #c13080;
      }

      .cls-4 {
        fill: #3d3135;
      }

      .cls-5 {
        fill: none;
      }

      .cls-6 {
        fill: #fff;
      }

      .cls-7 {
        opacity: 0.3;
      }

      .cls-8 {
        fill: #b6becc;
      }

      .cls-9 {
        fill: #ffdc4a;
      }

      .cls-10 {
        fill: #456b93;
      }

      .cls-11 {
        fill: #7d8796;
      }

      .cls-12 {
        fill: #ff9;
      }

      .cls-13 {
        fill: #3d3134;
      }

      .cls-14 {
        fill: #ed6263;
      }
    </style>
  </defs>
  <g id="Background">
    <path class="cls-1" d="M371,208" transform="translate(-4.28 -6.08)"/>
    <path class="cls-2" d="M241.79,266.57c-20.94,11.6-45.42,15.61-71.27,20.93-25.94,5.09-53.32,11.65-74.75,3.32C74.42,282.33,59,259.1,42.82,236.53,26.51,213.88,9.52,191.9,5.39,167.61c-4.3-24.37,4.36-50.8,18.26-72.54C37.79,73.23,57.18,56.49,78,40.79s42.78-30.34,66.49-33.92c23.8-3.36,49.38,4.35,70.9,17.17C237,36.7,254.48,54.65,267.68,74.73A172.87,172.87,0,0,1,294,141.31c4.28,24,3.64,49.39-5.34,71.82A108.78,108.78,0,0,1,241.79,266.57Z" transform="translate(-4.28 -6.08)"/>
  </g>
  <g id="Calque_24" data-name="Calque 24">
    <path class="cls-3" d="M145,114" transform="translate(-4.28 -6.08)"/>
    <path class="cls-3" d="M121,180" transform="translate(-4.28 -6.08)"/>
    <path class="cls-3" d="M182,225" transform="translate(-4.28 -6.08)"/>
    <path class="cls-3" d="M153.46,114" transform="translate(-4.28 -6.08)"/>
    <path class="cls-3" d="M248,188" transform="translate(-4.28 -6.08)"/>
    <path class="cls-3" d="M256.46,188" transform="translate(-4.28 -6.08)"/>
  </g>
  <g id="Calque_13" data-name="Calque 13">
    <path class="cls-4" d="M146.29,146.75" transform="translate(-4.28 -6.08)"/>
    <path class="cls-4" d="M151.69,145.8" transform="translate(-4.28 -6.08)"/>
    <path class="cls-4" d="M151.38,146.05" transform="translate(-4.28 -6.08)"/>
    <path class="cls-4" d="M146,147" transform="translate(-4.28 -6.08)"/>
    <path class="cls-4" d="M151.82,146.75" transform="translate(-4.28 -6.08)"/>
    <path class="cls-4" d="M146.43,145.8" transform="translate(-4.28 -6.08)"/>
    <path class="cls-4" d="M146.73,146.05" transform="translate(-4.28 -6.08)"/>
    <path class="cls-4" d="M152.13,147" transform="translate(-4.28 -6.08)"/>
    <path class="cls-4" d="M249.32,228.31" transform="translate(-4.28 -6.08)"/>
    <path class="cls-4" d="M255,227.31" transform="translate(-4.28 -6.08)"/>
    <path class="cls-4" d="M254.68,227.57" transform="translate(-4.28 -6.08)"/>
    <path class="cls-4" d="M249,228.57" transform="translate(-4.28 -6.08)"/>
    <path class="cls-4" d="M255.14,228.31" transform="translate(-4.28 -6.08)"/>
    <path class="cls-4" d="M249.46,227.31" transform="translate(-4.28 -6.08)"/>
    <path class="cls-4" d="M249.79,227.57" transform="translate(-4.28 -6.08)"/>
    <path class="cls-4" d="M255.46,228.57" transform="translate(-4.28 -6.08)"/>
  </g>
  <g id="Calque_12" data-name="Calque 12">
    <line class="cls-5" x1="145.9" y1="120.88" x2="145.9" y2="119.04"/>
    <line class="cls-5" x1="145.39" y1="134.21" x2="145.39" y2="126.33"/>
    <line class="cls-5" x1="143.76" y1="119.04" x2="143.76" y2="120.88"/>
    <line class="cls-5" x1="143.28" y1="126.33" x2="143.28" y2="134.21"/>
    <path class="cls-4" d="M113.64,122.9" transform="translate(-4.28 -6.08)"/>
    <line class="cls-5" x1="143.76" y1="119.04" x2="143.76" y2="120.88"/>
    <line class="cls-5" x1="143.28" y1="126.33" x2="143.28" y2="134.21"/>
    <line class="cls-5" x1="145.9" y1="120.88" x2="145.9" y2="119.04"/>
    <line class="cls-5" x1="145.39" y1="134.21" x2="145.39" y2="126.33"/>
    <line class="cls-5" x1="143.46" y1="121.12" x2="143.46" y2="119.28"/>
    <line class="cls-5" x1="142.98" y1="134.44" x2="142.98" y2="126.56"/>
    <line class="cls-5" x1="145.6" y1="119.28" x2="145.6" y2="121.12"/>
    <line class="cls-5" x1="145.09" y1="126.56" x2="145.09" y2="134.44"/>
    <path class="cls-4" d="M185,120.26" transform="translate(-4.28 -6.08)"/>
    <line class="cls-5" x1="145.6" y1="119.28" x2="145.6" y2="121.12"/>
    <line class="cls-5" x1="145.09" y1="126.56" x2="145.09" y2="134.44"/>
    <line class="cls-5" x1="143.46" y1="121.12" x2="143.46" y2="119.28"/>
    <line class="cls-5" x1="142.98" y1="134.44" x2="142.98" y2="126.56"/>
    <line class="cls-5" x1="143.89" y1="120.88" x2="143.89" y2="119.04"/>
    <line class="cls-5" x1="143.4" y1="134.21" x2="143.4" y2="126.33"/>
    <line class="cls-5" x1="146.03" y1="119.04" x2="146.03" y2="120.88"/>
    <line class="cls-5" x1="145.52" y1="126.33" x2="145.52" y2="134.21"/>
    <path class="cls-4" d="M185.48,119" transform="translate(-4.28 -6.08)"/>
    <line class="cls-5" x1="146.03" y1="119.04" x2="146.03" y2="120.88"/>
    <line class="cls-5" x1="145.52" y1="126.33" x2="145.52" y2="134.21"/>
    <path class="cls-6" d="M147.68,127.94v-1.82s18,.63,24.4,18.8,2.7-4.4,2.7-4.4-4.51-14.68-25.41-18.31-6.42,5.58-1.39,4.15v1.82" transform="translate(-4.28 -6.08)"/>
    <line class="cls-5" x1="143.4" y1="134.21" x2="143.4" y2="126.33"/>
    <line class="cls-5" x1="146.33" y1="121.12" x2="146.33" y2="119.28"/>
    <line class="cls-5" x1="145.81" y1="134.44" x2="145.81" y2="126.56"/>
    <line class="cls-5" x1="144.19" y1="119.28" x2="144.19" y2="121.12"/>
    <line class="cls-5" x1="143.7" y1="126.56" x2="143.7" y2="134.44"/>
    <line class="cls-5" x1="143.7" y1="126.56" x2="143.7" y2="134.44"/>
    <line class="cls-5" x1="146.33" y1="121.12" x2="146.33" y2="119.28"/>
    <line class="cls-5" x1="145.81" y1="134.44" x2="145.81" y2="126.56"/>
    <line class="cls-5" x1="249.04" y1="196.23" x2="249.04" y2="194.23"/>
    <line class="cls-5" x1="249.04" y1="212.82" x2="249.04" y2="204.15"/>
    <line class="cls-5" x1="246.72" y1="194.23" x2="246.72" y2="196.23"/>
    <line class="cls-5" x1="246.72" y1="204.15" x2="246.72" y2="212.82"/>
    <line class="cls-5" x1="246.72" y1="194.23" x2="246.72" y2="196.23"/>
    <line class="cls-5" x1="246.72" y1="204.15" x2="246.72" y2="212.82"/>
    <line class="cls-5" x1="249.04" y1="196.23" x2="249.04" y2="194.23"/>
    <line class="cls-5" x1="249.04" y1="212.82" x2="249.04" y2="204.15"/>
    <line class="cls-5" x1="246.39" y1="196.49" x2="246.39" y2="194.49"/>
    <line class="cls-5" x1="246.39" y1="213.08" x2="246.39" y2="204.41"/>
    <line class="cls-5" x1="248.72" y1="194.49" x2="248.72" y2="196.49"/>
    <line class="cls-5" x1="248.72" y1="204.41" x2="248.72" y2="213.08"/>
    <line class="cls-5" x1="248.72" y1="194.49" x2="248.72" y2="196.49"/>
    <line class="cls-5" x1="248.72" y1="204.41" x2="248.72" y2="213.08"/>
    <line class="cls-5" x1="246.39" y1="196.49" x2="246.39" y2="194.49"/>
    <line class="cls-5" x1="246.39" y1="213.08" x2="246.39" y2="204.41"/>
    <line class="cls-5" x1="246.86" y1="196.23" x2="246.86" y2="194.23"/>
    <line class="cls-5" x1="246.86" y1="212.82" x2="246.86" y2="204.15"/>
    <line class="cls-5" x1="249.18" y1="194.23" x2="249.18" y2="196.23"/>
    <line class="cls-5" x1="249.18" y1="204.15" x2="249.18" y2="212.82"/>
    <line class="cls-5" x1="249.18" y1="194.23" x2="249.18" y2="196.23"/>
    <line class="cls-5" x1="249.18" y1="204.15" x2="249.18" y2="212.82"/>
    <line class="cls-5" x1="246.86" y1="196.23" x2="246.86" y2="194.23"/>
    <line class="cls-5" x1="246.86" y1="212.82" x2="246.86" y2="204.15"/>
    <line class="cls-5" x1="249.51" y1="196.49" x2="249.51" y2="194.49"/>
    <line class="cls-5" x1="249.51" y1="213.08" x2="249.51" y2="204.41"/>
    <line class="cls-5" x1="247.18" y1="194.49" x2="247.18" y2="196.49"/>
    <line class="cls-5" x1="247.18" y1="204.41" x2="247.18" y2="213.08"/>
    <line class="cls-5" x1="247.18" y1="194.49" x2="247.18" y2="196.49"/>
    <line class="cls-5" x1="247.18" y1="204.41" x2="247.18" y2="213.08"/>
    <line class="cls-5" x1="249.51" y1="196.49" x2="249.51" y2="194.49"/>
    <line class="cls-5" x1="249.51" y1="213.08" x2="249.51" y2="204.41"/>
  </g>
  <g id="Calque_19" data-name="Calque 19">
    <circle class="cls-4" cx="145.04" cy="206.23" r="9"/>
    <circle class="cls-6" cx="145.04" cy="206.23" r="5"/>
    <g id="Calque_23" data-name="Calque 23">
      <path class="cls-7" d="M146,194.75s-8.35,3.88-1.68,5.56-3.67,3.32-4,3S137,198,137,198l3-5Z" transform="translate(-4.28 -6.08)"/>
      <rect class="cls-8" x="134.72" y="186.7" width="21" height="6.22"/>
      <rect class="cls-8" x="134.72" y="194.92" width="21" height="7"/>
      <path class="cls-9" d="M179.35,149.11c0,.36,0,.73,0,1.1s0,.73,0,1.08c0,.59-.11,1.18-.17,1.75,0,.29-.08.59-.13.88-.16.93-.36,1.86-.58,2.77,0,.17-.13.49-.25.88s-.14.47-.22.69-.11.32-.16.49a4.6,4.6,0,0,0-.18.49l-.21.55c-.19.52-.4,1-.62,1.52s-.51,1.12-.81,1.67c-.13.28-.29.56-.45.86l-.33.55c-.14.23-.27.48-.43.7-.31.5-.64,1-.92,1.36-.09.15-.18.26-.26.38l-.47.62a.27.27,0,0,1-.08.1v0c-.16.21-.33.41-.48.6l-.4.47c-.29.35-.63.66-1,1s-.44.46-.69.75a.08.08,0,0,1-.05.05c-.48.55-1,1.22-1.64,2,0,.05-.09.13-.15.2a56.93,56.93,0,0,0-3.82,5.53c-.15.22-.28.44-.42.68s-.41.68-.61,1l-.57,1c-.19.34-.38.71-.61,1.12s-.53,1.06-.82,1.69l-.11.23c-.3.63-.61,1.34-.93,2.09a5.94,5.94,0,0,1-1.11,2.09l-.3.33-.28.27a6.71,6.71,0,0,1-.79.59,3.38,3.38,0,0,1-.48.16h-15a3.71,3.71,0,0,1-.47-.16,6,6,0,0,1-.79-.59l-.29-.27-.3-.33a6.29,6.29,0,0,1-1.11-2.09c-.32-.75-.63-1.46-.93-2.09a1.63,1.63,0,0,0-.11-.23c-.29-.63-.56-1.19-.82-1.69s-.42-.78-.61-1.12-.37-.67-.56-1-.4-.69-.61-1-.28-.46-.42-.68a60.7,60.7,0,0,0-3.82-5.53c-.06-.07-.11-.15-.16-.2-.6-.76-1.15-1.43-1.64-2a.11.11,0,0,1,0-.05l-.69-.75c-.32-.34-.66-.65-.95-1l-.4-.47-.49-.6v0a.45.45,0,0,1-.09-.1l-.46-.62-.27-.38c-.28-.38-.61-.86-.92-1.36-.15-.22-.29-.47-.42-.7l-.33-.55c-.17-.3-.32-.58-.46-.86-.29-.55-.55-1.1-.8-1.67s-.44-1-.63-1.52c-.06-.18-.14-.37-.21-.55a4.65,4.65,0,0,0-.17-.49l-.17-.49c-.08-.22-.14-.45-.21-.69s-.2-.71-.25-.88c-.23-.91-.43-1.84-.58-2.77,0-.29-.09-.59-.13-.88-.07-.57-.14-1.16-.17-1.75,0-.35,0-.72-.06-1.08s0-.74,0-1.1a29.08,29.08,0,1,1,58.14,0Z" transform="translate(-4.28 -6.08)"/>
      <path class="cls-10" d="M145,187" transform="translate(-4.28 -6.08)"/>
      <path class="cls-11" d="M143.24,198.74c-1.24,0-2.36-1.47-.24-3.47L139.81,194l-2.25,3.91.67.83H138V202h22v-3.26Z" transform="translate(-4.28 -6.08)"/>
      <path class="cls-11" d="M143.24,207.74c-1.24,0-2.36-1.47-.24-3.47L139.81,203l-2.25,3.91.67.83H138V211h22v-3.26Z" transform="translate(-4.28 -6.08)"/>
      <rect class="cls-4" x="133.52" y="158.92" width="22.92" height="4.25" rx="2"/>
      <rect class="cls-4" x="137.19" y="164" width="22.92" height="5.25" rx="2" transform="translate(293.02 327.17) rotate(-180)"/>
      <path class="cls-4" d="M148.61,114.89A34.18,34.18,0,0,0,123,171c3,3.78,7.18,7.24,11.71,18.54a4.72,4.72,0,0,0,.22.54,4.21,4.21,0,0,0,1,1.3c.62.55,1.22,1.1,1.83,1.66a.85.85,0,0,1,.14.11,2.3,2.3,0,0,0,1.47.55h18.62a2.3,2.3,0,0,0,1.47-.55l.14-.11,1.83-1.66a4.06,4.06,0,0,0,1-1.3,2.67,2.67,0,0,0,.22-.54c4.54-11.3,8.7-14.76,11.71-18.54a34.18,34.18,0,0,0-25.65-56.1Zm28.9,36.34c0,.58-.11,1.16-.18,1.73,0,.29-.08.58-.13.87-.15.93-.34,1.84-.58,2.75,0,.17-.12.47-.24.86s-.14.47-.22.69-.1.31-.16.47-.12.33-.17.5l-.21.55c-.19.51-.4,1-.63,1.5s-.51,1.1-.8,1.65q-.21.42-.45.84c-.11.18-.21.36-.33.55s-.27.47-.42.71c-.32.48-.64,1-.92,1.34-.09.14-.19.26-.27.37l-.46.62-.08.1h0l-.48.59-.4.47c-.29.34-.63.66-.94,1l-.7.75a.08.08,0,0,1,0,0c-.48.55-1,1.21-1.64,2-.05.06-.09.13-.15.2a58.89,58.89,0,0,0-3.81,5.48l-.42.67c-.21.34-.41.67-.6,1s-.38.65-.57,1-.38.7-.6,1.11-.54,1-.83,1.67c0,.07-.07.15-.1.23-.3.63-.61,1.32-.93,2.06a6,6,0,0,1-1.11,2.08l-.3.32c-.09.1-.19.18-.28.27a6,6,0,0,1-.79.59,2.57,2.57,0,0,1-.47.15h-15a2.44,2.44,0,0,1-.48-.15,6.71,6.71,0,0,1-.79-.59l-.28-.27-.3-.32a6.17,6.17,0,0,1-1.11-2.08c-.31-.74-.63-1.43-.93-2.06,0-.08-.07-.16-.1-.23-.29-.62-.57-1.17-.82-1.67s-.42-.78-.61-1.11-.37-.66-.56-1-.4-.68-.61-1l-.41-.67a58.84,58.84,0,0,0-3.82-5.48c-.06-.07-.1-.14-.15-.2-.6-.75-1.16-1.41-1.63-2a.07.07,0,0,1,0,0l-.69-.75c-.32-.33-.65-.65-.94-1l-.41-.47-.47-.59h0l-.08-.1-.46-.62-.27-.37c-.28-.38-.6-.86-.91-1.34l-.43-.71c-.12-.19-.22-.37-.33-.55s-.31-.56-.45-.84c-.29-.55-.55-1.09-.8-1.65a15.24,15.24,0,0,1-.62-1.5l-.21-.55c-.06-.17-.12-.35-.18-.5s-.11-.32-.16-.47-.15-.45-.22-.69-.2-.69-.24-.86c-.23-.91-.43-1.82-.58-2.75,0-.29-.09-.58-.13-.87-.07-.57-.14-1.15-.17-1.73q0-.54-.06-1.08c0-.36,0-.73,0-1.09a29,29,0,1,1,58,0c0,.36,0,.73,0,1.09S177.53,150.87,177.51,151.23Z" transform="translate(-4.28 -6.08)"/>
      <path class="cls-9" d="M148.47,119.26a29.76,29.76,0,0,0-29.07,29.85c0,.36,0,.73,0,1.1s0,.73.06,1.08c0,.59.11,1.18.17,1.75,0,.29.08.59.13.88.15.93.35,1.86.58,2.77,0,.17.13.49.25.88s.14.47.22.69.11.32.16.49a3.12,3.12,0,0,1,.17.49c.08.18.15.37.21.55.2.52.41,1,.63,1.52s.51,1.12.8,1.67c.14.28.3.56.46.86l.33.55c.14.23.27.48.43.7.31.5.63,1,.92,1.36.09.15.18.26.26.38l.47.62a.27.27,0,0,0,.08.1v0c.16.21.33.41.48.6l.4.47c.29.35.63.66,1,1s.44.46.69.75a.08.08,0,0,0,.05.05c.48.55,1,1.22,1.64,2,0,.05.09.13.15.2a56.93,56.93,0,0,1,3.82,5.53c.15.22.28.44.42.68s.41.68.61,1l.57,1c.19.34.38.71.61,1.12s.52,1.06.82,1.69l.11.23c.3.63.61,1.34.92,2.09a6.17,6.17,0,0,0,1.12,2.09l.3.33.28.27a6.71,6.71,0,0,0,.79.59,3.38,3.38,0,0,0,.48.16h15a3.71,3.71,0,0,0,.47-.16,6,6,0,0,0,.79-.59l.28-.27.31-.33a6.29,6.29,0,0,0,1.11-2.09c.32-.75.63-1.46.93-2.09a1.63,1.63,0,0,1,.11-.23c.29-.63.56-1.19.82-1.69l.61-1.12c.18-.34.37-.67.56-1s.4-.69.61-1,.28-.46.42-.68a60.7,60.7,0,0,1,3.82-5.53c.06-.07.11-.15.15-.2.61-.76,1.16-1.43,1.65-2a.11.11,0,0,0,0-.05l.69-.75c.32-.34.66-.65.95-1l.4-.47q.24-.28.48-.6v0a.45.45,0,0,0,.09-.1l.46-.62c.08-.12.17-.23.26-.38.29-.38.62-.86.93-1.36.15-.22.29-.47.42-.7s.23-.38.33-.55.32-.58.46-.86c.29-.55.55-1.1.8-1.67s.44-1,.63-1.52c.06-.18.13-.37.21-.55a4.65,4.65,0,0,1,.17-.49c.06-.17.12-.34.16-.49a7,7,0,0,0,.22-.69c.12-.39.2-.71.25-.88.23-.91.43-1.84.58-2.77,0-.29.09-.59.13-.88.06-.57.14-1.16.17-1.75,0-.35.05-.72.06-1.08s0-.74,0-1.1A29.76,29.76,0,0,0,148.47,119.26ZM153.61,176a13.8,13.8,0,0,1-2.55-.24,14.29,14.29,0,0,1-1.65.21,13,13,0,0,1-4.12.64c-15.54,0-15.77-23.67-.79-24.49a12.91,12.91,0,0,1,4.12-.64,13.27,13.27,0,0,1,2.5.23,13.24,13.24,0,0,1,2.49-.23C169.42,151.43,169.4,176,153.61,176Z" transform="translate(-4.28 -6.08)"/>
    </g>
    <g id="Calque_18" data-name="Calque 18">
      <path class="cls-4" d="M156.82,191.31H141.5a6.5,6.5,0,1,0,0,13h15.32a6.51,6.51,0,0,0,4.6-1.9l.09-.1a6.5,6.5,0,0,0-4.69-11Zm-15.16,9a2.5,2.5,0,1,1,0-5H157a2.5,2.5,0,1,1,0,5Z" transform="translate(-4.28 -6.08)"/>
      <path class="cls-4" d="M161.51,202.31a6.49,6.49,0,0,0-4.69-2h-15a6.51,6.51,0,0,0-4.6,1.9l-.25.27a6.5,6.5,0,0,0,4.85,10.83h15a6.5,6.5,0,0,0,4.69-11Zm-2.75,6.27a2.52,2.52,0,0,1-1.77.73H141.66a2.5,2.5,0,1,1,0-5H157a2.5,2.5,0,0,1,1.77,4.27Z" transform="translate(-4.28 -6.08)"/>
    </g>
    <rect class="cls-4" x="151.46" y="159.83" width="4.54" height="32.81" rx="2" transform="translate(303.18 346.4) rotate(-180)"/>
    <rect class="cls-4" x="137.63" y="153.75" width="4.54" height="32.81" rx="2"/>
  </g>
  <g id="Calque_29" data-name="Calque 29">
    <path class="cls-12" d="M165.73,136.74c1.16,2.47,2.41,7.66,4,9.79a3.11,3.11,0,0,0,2,1.35,2.14,2.14,0,0,0,1.25-.24c1.45-.87.68-7.37-2.72-12.72-3.85-6-11.25-10.88-14.54-9.08a1.65,1.65,0,0,0-.91.91C154.17,129.07,162.71,130.31,165.73,136.74Z" transform="translate(-4.28 -6.08)"/>
  </g>
  <g id="Calque_25" data-name="Calque 25">
    <circle class="cls-13" cx="154.68" cy="155.67" r="7.5"/>
    <circle class="cls-14" cx="154.68" cy="155.67" r="3.5"/>
    <circle class="cls-13" cx="134.67" cy="155.67" r="7.5"/>
    <circle class="cls-14" cx="134.67" cy="155.67" r="3.5"/>
  </g>
  <g id="Calque_28" data-name="Calque 28">
    <path class="cls-3" d="M120.43,172.33" transform="translate(-4.28 -6.08)"/>
    <path class="cls-3" d="M121.5,181" transform="translate(-4.28 -6.08)"/>
    <path class="cls-3" d="M178,181" transform="translate(-4.28 -6.08)"/>
    <path class="cls-4" d="M185.52,122.2" transform="translate(-4.28 -6.08)"/>
    <path class="cls-4" d="M184,127" transform="translate(-4.28 -6.08)"/>
    <rect class="cls-6" x="143.22" y="67.93" width="4" height="14" rx="2"/>
    <rect class="cls-6" x="100.5" y="95.01" width="4" height="14" rx="2" transform="translate(-46.39 96.27) rotate(-45)"/>
    <rect class="cls-6" x="194.96" y="95.01" width="4" height="14" rx="2" transform="translate(259.83 307.33) rotate(-135)"/>
  </g>
</svg>
