<svg xmlns="http://www.w3.org/2000/svg" viewBox="0 0 283.1 286.65">
  <defs>
    <style>
      .cls-1 {
        fill: #ec5971;
      }

      .cls-2 {
        fill: #3d3134;
      }

      .cls-3 {
        fill: #adadad;
      }
    </style>
  </defs>
  <g id="Calque_14" data-name="Calque 14">
    <g id="Calque_24" data-name="Calque 24">
      <path class="cls-1" d="M224.58,44.1c27.61,22,52.85,47.95,62.3,80.1,9.26,32,2.9,69.92-15.26,100.62-18.34,30.87-48.31,54.48-81.19,63.56-32.87,9.27-68.65,4.18-95.35-11.62-26.7-16-44.32-42.68-60.12-70.29C19,178.68,4.81,150.17,8.63,124.2c4-26,25.79-49.22,50.31-71.75C83.28,29.93,110,8.32,138.49,6.5,166.82,4.5,197,22.3,224.58,44.1Z" transform="translate(-8 -6.35)"/>
    </g>
  </g>
  <g id="Calque_16" data-name="Calque 16">
    <g id="Calque_21" data-name="Calque 21">
      <path class="cls-2" d="M133,165" transform="translate(-8 -6.35)"/>
    </g>
    <path class="cls-2" d="M140,180" transform="translate(-8 -6.35)"/>
  </g>
  <g id="Calque_26" data-name="Calque 26">
    <g id="Calque_27" data-name="Calque 27">
      <path class="cls-3" d="M191,162v-6.83L177.85,150l-1.52-6,5.22-11.43-5.05-5.07L164,132.57l-5.5-3.07L152.17,117H146l-4.67,13.16L135,132l-12.5-5.53L117.29,132,122,143l-2.33,6.67L109,155l-1,6,12,6,3,6-5.71,12.33,4.71,5.21,13-5,6,2.5,5,11.83h6.33L157,189l7-3.83,12.67,5.37,4.93-5L176.33,173l1.52-5.5Zm-26.33-2.67c.36,8.1-7.16,15-15,15A14.5,14.5,0,0,1,139,169.7a16.13,16.13,0,0,1-4.82-10.87,12.64,12.64,0,0,1,.7-4.72,15.57,15.57,0,0,1,14.46-10.78h.34c8.41,0,14.63,6.88,15,15,0,.29,0,.57,0,.85C164.66,159.23,164.66,159.28,164.67,159.33Z" transform="translate(-8 -6.35)"/>
    </g>
    <path class="cls-2" d="M160.76,131.4l-1.11.45h0l-.6-.21a7,7,0,0,0-.77-.26l-.46-.15h0c-.34-.11-.69-.2-1-.29a4.56,4.56,0,0,0-.53-.13l-1.79-4.44-3-7.36H147l-3,7.47-1.82,4.5-.08,0a6.61,6.61,0,0,0-.76.22l-.46.13c-.3.1-.61.2-.91.32s-.43.15-.65.24c-.54.2-1.07.43-1.6.67h0l-.39-.16.7-1.74,1.2-3,4.86-12,.28-.68h9.85l.87,2.15,4.17,10.31,1.54,3.82Z" transform="translate(-8 -6.35)"/>
    <path class="cls-2" d="M193,153.73v9.85l-2.15.87-10.48,4.24L177.18,170l-.58.24-.22-.54-.32-.81h0c0-.09.07-.17.1-.26l0-.09c.16-.42.31-.84.44-1.26s.28-.92.4-1.38c0-.05,0-.11,0-.16l4.48-1.81,7.45-3v-4.47l-7.4-3-4.45-1.79c0-.14-.06-.28-.1-.43a.19.19,0,0,0,0-.08c-.09-.34-.18-.68-.29-1a2.76,2.76,0,0,0-.08-.27c-.11-.34-.22-.68-.34-1q-.31-.87-.69-1.71h0l-.17-.07.06-.16.08-.2,1.51.61,3.37,1.37,11.84,4.79Z" transform="translate(-8 -6.35)"/>
    <path class="cls-2" d="M183.86,131.39l-.9,2.14-4.41,10.39-1.44,3.37-.16.39-1.32-.56h0l-.17-.07.06-.16q-.11-.27-.24-.54c-.11-.25-.23-.49-.36-.73a5.06,5.06,0,0,0-.24-.46c-.18-.34-.37-.67-.57-1l1.89-4.46,3.12-7.38L176,129.16l-7.3,3.1-4.4,1.86-.07,0q-.47-.29-.93-.54c-.66-.36-1.33-.7-2-1l-.82-.36-.77-.31h0l0-.1,1.1-.47,3.81-1.61,11.7-5,.68-.28,3,3,.87.87Z" transform="translate(-8 -6.35)"/>
    <path class="cls-2" d="M123.69,146.41s0,0,0,0c.16-.36.34-.71.52-1.06,0,0,0,0,0,0,.17-.32.34-.63.53-.94a.19.19,0,0,1,0-.1c.06-.1.11-.2.17-.29l-1.87-4.43-3.28-7.71,3.16-3.15,7.75,3.29,4.45,1.89c.37-.22.74-.43,1.12-.62s.68-.35,1-.51l.26-.12,0,0,.73-1.72-.42-.18L135,129.42l-10.79-4.58-2.13-.91-3,3-.87.87-3,3.05.29.67,5.15,12.15,1.13,2.66.76,1.8.6-.25Z" transform="translate(-8 -6.35)"/>
    <path class="cls-2" d="M138.36,186.27l-.34.14-2.9,1.23-10.91,4.63-2.13.91-3-3.05-.87-.87-3-3,.29-.68,5.18-12.21,1.75-4.14.11-.25.06,0,.59.25c.11.28.23.56.35.83,0,.05,0,.11.07.17.16.36.33.72.51,1.06s.38.74.58,1.1a.41.41,0,0,0,.05.09c.12.21.24.42.37.63l-1.88,4.42-3.3,7.78,3.16,3.15,7.85-3.33,4.46-1.89.36.2.51.28.81.41.55.26h0Z" transform="translate(-8 -6.35)"/>
    <path class="cls-2" d="M183.86,185.71l-3.05,3-.87.87-3,3.05-.68-.28-11.82-5-3.76-1.59-1-.44.11-.25v0h0c.58-.22,1.16-.46,1.72-.73.41-.19.82-.39,1.22-.6,0,0,0,0,0,0,.38-.19.76-.4,1.13-.63l.06,0s0,0,0,0l.19-.11,4.42,1.87L176,188l3.15-3.16L176,177.35l-1.89-4.45c.17-.27.32-.53.48-.81.24-.44.46-.88.68-1.33.11-.24.23-.49.33-.74l.81-.35.57-.24.23.54,1.34,3.16h0L183,183.58Z" transform="translate(-8 -6.35)"/>
    <path class="cls-2" d="M123.69,146.41l-.29-.73-1.72.7-2.77,1.12-12.23,4.95-.68.28v9.85l2.15.87,10.13,4.09h0l4,1.63.07,0,.1-.25.25-.62q-.12-.3-.21-.6a2.42,2.42,0,0,1-.12-.35c-.09-.28-.18-.56-.26-.84s-.12-.38-.16-.57-.18-.67-.25-1c0-.13-.06-.25-.08-.38l-4.38-1.77L110,159.87v-4.46l7.59-3.06,4.55-1.84,0,0c.07-.28.16-.55.25-.83a1.82,1.82,0,0,1,.11-.3c.09-.29.2-.58.31-.87s.13-.35.21-.53Z" transform="translate(-8 -6.35)"/>
    <path class="cls-2" d="M160.76,185.49l-.12.3-1.52,3.77h0L155,199.74l-.87,2.15h-9.85l-.28-.68-4.81-11.89L138,186.41l-.78-1.92.3-.12h0c.19.1.39.18.58.26s.51.22.77.32c.61.25,1.23.48,1.86.68.28.08.55.17.83.24a.42.42,0,0,0,.15,0,3.45,3.45,0,0,0,.43.12l1.82,4.5,3,7.35h4.46l2.93-7.25,1.8-4.44,3.57-1.12h0Z" transform="translate(-8 -6.35)"/>
    <path class="cls-2" d="M168.61,132.21c-.57-.42-1.15-.81-1.75-1.19l-.51-.31c-.51-.32-1-.61-1.56-.9l-.27-.14-.08,0c-.28-.15-.56-.29-.85-.42l-.62-.3-.82-.35-.68-.28-.05,0-.89-.34c-.45-.16-.9-.32-1.36-.46a32,32,0,0,0-3.24-.82l-.67-.13-.85-.15,1.79,4.44a4.56,4.56,0,0,1,.53.13c.35.09.7.18,1,.29h0l.46.15a7,7,0,0,1,.77.26l.6.21h0l.77.31.82.36c.69.31,1.36.65,2,1q.47.26.93.54l.07,0,4.4-1.86ZM142.18,186a3.45,3.45,0,0,1-.43-.12.42.42,0,0,1-.15,0c-.28-.07-.55-.16-.83-.24-.63-.2-1.25-.43-1.86-.68-.26-.1-.51-.2-.77-.32s-.39-.16-.58-.26h0l-.55-.26-.81-.41-.51-.28-.36-.2-4.46,1.89.2.14c.64.45,1.31.88,2,1.27.32.19.64.38,1,.56l.09,0c.34.18.68.36,1,.52l.29.15,0,0c.43.21.87.41,1.31.59l.09,0q.66.28,1.35.54c.33.12.66.24,1,.34l.44.15c.39.13.77.24,1.16.35s.79.21,1.19.3.79.18,1.2.26l.82.16Zm-17.53-13.58a.41.41,0,0,1-.05-.09c-.2-.36-.4-.73-.58-1.1s-.35-.7-.51-1.06c0-.06-.05-.12-.07-.17-.12-.27-.24-.55-.35-.83L123,169a3.69,3.69,0,0,1-.17-.42l-.1-.27q-.12-.3-.21-.6a2.42,2.42,0,0,1-.12-.35c-.09-.28-.18-.56-.26-.84s-.12-.38-.16-.57-.18-.67-.25-1c0-.13-.06-.25-.08-.38l-4.38-1.77c0,.11,0,.21,0,.32,0,.29.09.57.13.86,0,.08,0,.17.05.26s.08.46.13.69.12.59.19.89.14.58.22.87.15.56.23.83h0l.09.3v0c.11.35.22.7.34,1.05l.06.17c.12.36.25.72.4,1.08s.37.95.58,1.42.3.66.46,1,.24.49.37.73a29.62,29.62,0,0,0,2.17,3.64l.39.55,1.88-4.42C124.89,172.88,124.77,172.67,124.65,172.46Zm19.07-45.95-.77.15-1.24.28c-.74.18-1.47.39-2.19.62l-.14,0-.24.08-1,.34c-.29.1-.58.22-.87.34l-.46.19-.19.08-.92.41-.33.16-.41.21-.5.25-1,.51q-.61.34-1.2.72c-.34.21-.67.43-1,.65l-.59.41,4.45,1.89c.37-.22.74-.43,1.12-.62s.68-.35,1-.51l.26-.12.06,0c.53-.24,1.06-.47,1.6-.67.22-.09.43-.17.65-.24s.61-.22.91-.32l.46-.13a6.61,6.61,0,0,1,.76-.22l.08,0,1.82-4.5ZM123,139.73c-.49.68-.94,1.38-1.36,2.1-.22.34-.42.69-.61,1l-.45.85a30.9,30.9,0,0,0-1.43,3.22,5.37,5.37,0,0,0-.21.56l-.06.17h0c-.14.38-.27.76-.39,1.15l0,.1c-.11.37-.22.75-.32,1.13s-.21.81-.3,1.22-.16.72-.22,1.07l4.55-1.84,0,0c.07-.28.16-.55.25-.83a1.82,1.82,0,0,1,.11-.3c.09-.29.2-.58.31-.87s.13-.35.21-.53c.19-.52.41-1,.65-1.52,0,0,0,0,0,0,.16-.36.34-.71.52-1.06,0,0,0,0,0,0,.17-.32.34-.63.53-.94a.19.19,0,0,1,0-.1c.06-.1.11-.2.17-.29l-1.87-4.43Zm41.18,43.21-.19.11s0,0,0,0l-.06,0c-.37.23-.75.44-1.13.63,0,0,0,0,0,0-.4.21-.81.41-1.22.6-.56.27-1.14.51-1.72.73h0l-.1,0-.78.29-.26.08-.72.24c-.34.11-.68.21-1,.29l-.67.16-1.8,4.44.9-.15.7-.13c.63-.13,1.26-.28,1.88-.44.39-.1.78-.21,1.16-.33l.11,0h0l0,0c.39-.13.78-.25,1.16-.39l1.09-.41a28.64,28.64,0,0,0,3-1.36c.5-.25,1-.52,1.47-.8l.48-.29c.7-.42,1.37-.86,2-1.34h0l.17-.13Zm12.92-17.24c0,.05,0,.11,0,.16-.12.46-.25.92-.4,1.38s-.28.84-.44,1.26l0,.09c0,.09-.07.17-.1.26h0l-.3.74c-.06.14-.12.28-.19.42s-.22.5-.33.74c-.22.45-.44.89-.68,1.33-.16.28-.31.54-.48.81l1.89,4.45,0,0c.2-.27.39-.55.58-.84s.37-.56.55-.85.38-.62.56-.94.24-.41.35-.62.33-.61.48-.92h0l.27-.54c.1-.19.19-.39.28-.59l.17-.38c.18-.4.35-.8.5-1.2l.24-.61c.12-.33.24-.66.34-1l.05-.14c.11-.34.22-.69.32-1s.2-.68.29-1l.06-.24c.08-.31.15-.63.22-.94.1-.47.19-.95.27-1.42a.59.59,0,0,0,0-.13Zm4.42-13c-.16-.89-.35-1.77-.58-2.63l-.3-1.06c0-.13-.08-.26-.13-.39-.1-.34-.22-.68-.34-1s-.26-.71-.4-1.06c0-.11-.08-.21-.13-.32-.32-.8-.67-1.58-1.06-2.34l-.05-.09c-.18-.37-.38-.73-.58-1.09s-.29-.52-.44-.77a3.37,3.37,0,0,0-.19-.32c-.41-.68-.83-1.32-1.29-2l-1.89,4.46c.2.33.39.66.57,1a5.06,5.06,0,0,1,.24.46c.13.24.25.48.36.73s.17.36.24.54a1.63,1.63,0,0,1,.11.23h0q.38.84.69,1.71c.12.33.23.67.34,1a2.76,2.76,0,0,1,.08.27c.11.33.2.67.29,1a.19.19,0,0,1,0,.08c0,.15.07.29.1.43l4.45,1.79C181.57,153.19,181.53,153,181.49,152.74Z" transform="translate(-8 -6.35)"/>
    <path class="cls-2" d="M149.5,140A18.5,18.5,0,1,0,168,158.5,18.5,18.5,0,0,0,149.5,140Zm0,33A14.5,14.5,0,1,1,164,158.5,14.5,14.5,0,0,1,149.5,173Z" transform="translate(-8 -6.35)"/>
  </g>
</svg>
