<svg id="Analysis" xmlns="http://www.w3.org/2000/svg" viewBox="0 0 294.63 280.5">
  <defs>
    <style>
      .cls-1 {
        fill: #ec5971;
      }

      .cls-2 {
        fill: #3d3134;
      }

      .cls-3 {
        fill: #f5f5f0;
      }

      .cls-4 {
        fill: #b7b7bb;
        opacity: 0.35;
      }

      .cls-5 {
        fill: #5cc4dd;
      }

      .cls-6 {
        fill: #ffea52;
      }

      .cls-7 {
        fill: #f94c50;
      }

      .cls-8 {
        fill: #8add6b;
      }
    </style>
  </defs>
  <path id="Background" class="cls-1" d="M260,221.29c-18.71,20.51-36.52,35.94-56.56,47.14a168.76,168.76,0,0,1-66.3,20.71c-24,2.17-49.94-.1-68.6-13.11-18.65-12.84-30.21-36.23-42.77-60.76S-.61,165.08,3.64,142.7c4.06-22.36,26.13-41.45,45.22-65,19.25-23.78,35.55-51.89,59.37-62.78s55.16-4.55,80.83,9c25.69,13.7,45.71,34.42,66.24,56.69s41.37,45.75,42.17,70.28C298.09,175.37,278.67,201,260,221.29Z" transform="translate(-2.85 -9.36)"/>
  <path id="border" class="cls-2" d="M194,112.64H107.33a7,7,0,0,0-7,7v52a7,7,0,0,0,7,7h32.2v3.71h-9.47a2,2,0,0,0-2,2v3h45v-3a2,2,0,0,0-2-2h-9.5v-3.71H194a7,7,0,0,0,7-7v-52A7,7,0,0,0,194,112.64Z" transform="translate(-2.85 -9.36)"/>
  <path class="cls-3" d="M193,116.64H108.33a4,4,0,0,0-4,4v50a4,4,0,0,0,4,4H193a4,4,0,0,0,4-4v-50A4,4,0,0,0,193,116.64Z" transform="translate(-2.85 -9.36)"/>
  <path class="cls-4" d="M193,116.64h-4s4,.2,4,6.31v48.5c0,3.09-1.6,3.19-1.6,3.19H193a4,4,0,0,0,4-4v-50A4,4,0,0,0,193,116.64Z" transform="translate(-2.85 -9.36)"/>
  <g id="stats">
    <path class="cls-5" d="M184.93,141a2,2,0,0,0-2-2H172.77l-7.68-7.68a2,2,0,0,0-2.83,0l0,0h0l-24.44,24.44-6.86-6.86a2,2,0,0,0-1.44-.59l-.3,0h-11a2,2,0,0,0,0,4h10.47l7.72,7.72a2,2,0,0,0,2.83,0v0l0,0,24.45-24.44,6.8,6.8a2,2,0,0,0,.36.3.83.83,0,0,0,.16.09l.16.09a2.12,2.12,0,0,0,.89.15h10.88A2,2,0,0,0,184.93,141Z" transform="translate(-2.85 -9.36)"/>
    <path class="cls-6" d="M174.76,148.58a2,2,0,0,0-2,2v8a2,2,0,1,0,4,0v-8A2,2,0,0,0,174.76,148.58Z" transform="translate(-2.85 -9.36)"/>
    <path class="cls-7" d="M182.93,154.58a2,2,0,0,0-2,2v2a2,2,0,0,0,4,0v-2A2,2,0,0,0,182.93,154.58Z" transform="translate(-2.85 -9.36)"/>
    <path class="cls-8" d="M166.76,151.64a2,2,0,0,0-2,2v4.94a2,2,0,1,0,4,0v-4.94A2,2,0,0,0,166.76,151.64Z" transform="translate(-2.85 -9.36)"/>
  </g>
</svg>
