<svg xmlns="http://www.w3.org/2000/svg" viewBox="0 0 293.34 291.63">
  <defs>
    <style>
      .cls-1 {
        fill: #ec5971;
      }

      .cls-2 {
        fill: #b7b7c0;
      }

      .cls-3 {
        fill: #757884;
      }

      .cls-4 {
        fill: #3d3134;
      }

      .cls-5 {
        fill: #fcc463;
      }
    </style>
  </defs>
  <g id="Background">
    <path class="cls-1" d="M215,24.63c19.2,14.3,32.93,35,48.43,56.32,15.33,21.54,32.59,43.78,33.82,66.73,1.06,22.95-13.74,46.61-27.65,70.62-13.92,24.19-26.95,48.73-47.38,62.5-20.43,13.95-48.09,16.95-73.63,13.25-25.71-3.89-49-14.66-71.86-27.19-22.9-12.36-45.26-26.49-58.3-46.61C5.61,199.94,2.09,173.46,4.91,148.57c2.64-24.9,11.8-48.2,24.66-68.51A173,173,0,0,1,79.41,28.69C99.49,14.91,122.92,5,147.05,4A108.74,108.74,0,0,1,215,24.63Z" transform="translate(-4 -3.87)"/>
  </g>
  <g id="Calque_3" data-name="Calque 3">
    <g id="Calque_9" data-name="Calque 9">
      <path class="cls-2" d="M130,139s-2-16,17-20,24,19,24,19L169,139.23,160,139s-.83-6.33-8.92-9.67S140,138,140,138v1Z" transform="translate(-4 -3.87)"/>
    </g>
    <g id="Calque_10" data-name="Calque 10">
      <path class="cls-3" d="M150,120c-.37,0-.73,0-1.09,0a25.16,25.16,0,0,1,6.09,1c3.87,1.3,7.66,5.06,7,7a1.58,1.58,0,0,1-2,1,18,18,0,0,0-4-2,16.75,16.75,0,0,0-5-1c-4.41,0-7.76,2.75-9.36,4.34l-.08.16A12,12,0,0,1,162,139a9.1,9.1,0,0,1,0,.91l0,.09,7-.78V139A19,19,0,0,0,150,120Z" transform="translate(-4 -3.87)"/>
      <path class="cls-3" d="M168,118Z" transform="translate(-4 -3.87)"/>
      <path class="cls-3" d="M173,122" transform="translate(-4 -3.87)"/>
      <path class="cls-3" d="M175,114" transform="translate(-4 -3.87)"/>
      <path class="cls-3" d="M174,113" transform="translate(-4 -3.87)"/>
    </g>
    <path class="cls-4" d="M173,138.08a23,23,0,0,0-46,0,7,7,0,0,0-6,6.92v36a7,7,0,0,0,7,7h44a7,7,0,0,0,7-7V145A7,7,0,0,0,173,138.08ZM142.07,138a8,8,0,0,1,15.86,0ZM150,120A19,19,0,0,1,169,138h-7a12,12,0,0,0-23.9,0h-7A19,19,0,0,1,150,120Z" transform="translate(-4 -3.87)"/>
    <rect class="cls-5" x="121" y="138.13" width="50" height="42" rx="4"/>
  </g>
  <g id="Calque_5" data-name="Calque 5">
    <path class="cls-4" d="M157,160a7,7,0,1,0-9,6.71V171a2,2,0,0,0,4,0v-4.29A7,7,0,0,0,157,160Z" transform="translate(-4 -3.87)"/>
    <circle class="cls-3" cx="146" cy="156.13" r="3"/>
  </g>
</svg>
