<svg xmlns="http://www.w3.org/2000/svg" viewBox="0 0 292.24 288.72">
  <defs>
    <style>
      .cls-1 {
        fill: #ec5971;
      }

      .cls-2 {
        fill: #d6d5da;
      }

      .cls-3 {
        fill: #b7b7bb;
      }

      .cls-4 {
        fill: #3d3134;
      }

      .cls-5 {
        fill: #ed6263;
      }
    </style>
  </defs>
  <g id="Background">
    <path class="cls-1" d="M240.72,266.13c-20.94,11.6-45.42,15.61-71.27,20.93-25.94,5.09-53.33,11.65-74.75,3.32-21.35-8.49-36.81-31.72-52.95-54.29-16.31-22.64-33.3-44.63-37.43-68.92C0,142.8,8.68,116.37,22.58,94.63,36.71,72.8,56.11,56.05,77,40.35S119.74,10,143.45,6.43c23.8-3.35,49.38,4.35,70.9,17.17,21.6,12.66,39.06,30.61,52.26,50.69a172.86,172.86,0,0,1,26.28,66.59c4.28,24,3.64,49.38-5.34,71.81A108.78,108.78,0,0,1,240.72,266.13Z" transform="translate(-3.21 -5.64)"/>
  </g>
  <g id="fond">
    <polygon class="cls-2" points="117.12 127.04 194.45 127.04 175.12 159.27 136.79 159.27 117.12 127.04"/>
    <g id="Calque_9" data-name="Calque 9">
      <path class="cls-3" d="M175.66,164.35l12.07-25.5a2.74,2.74,0,0,0-.09-1.75c-.53-1.2-2.21-2.15-10.24-2.91-4.12-.39-6.18-.38-6.18-.5,0-.43,25-1.24,24.63-1.23h0l1.12,3.73-20.6,28.94Z" transform="translate(-3.21 -5.64)"/>
    </g>
  </g>
  <g id="cadis">
    <path class="cls-4" d="M199.1,131a1.92,1.92,0,0,0-1.13-.29,1.87,1.87,0,0,0-.42,0h-76l-.24,0-2.43-4h61.34a2,2,0,0,0,0-4H116.47L112,115.33a2,2,0,0,0-1.85-1l-.25,0h-8a2,2,0,0,0,0,4h7.3L137.93,166a2.06,2.06,0,0,0,.38.45l.09.07.08.07a2,2,0,0,0,1.26.46h38.75l.2,0h0l.21,0a2,2,0,0,0,1.36-.92l19.47-32.27A2,2,0,0,0,199.1,131Zm-38,32V150.84h9L166.62,163Zm-9.74,0-3.54-12.16h9.28V163Zm-4.71-16.16-3.53-12.15h14v12.15Zm14.45,0V134.69h13.72l-3.53,12.15ZM139,134.69l3.54,12.15H131.05l-7.34-12.15Zm-5.53,16.15h10.23L147.23,163H140.8Zm44,12.16h-6.69l3.54-12.16h10.48Zm9.75-16.16H175.49L179,134.69h15.53Z" transform="translate(-3.21 -5.64)"/>
  </g>
  <g id="roue">
    <circle class="cls-4" cx="143.12" cy="172.38" r="7"/>
    <circle class="cls-5" cx="143.12" cy="172.38" r="3"/>
    <circle class="cls-4" cx="168.45" cy="172.38" r="7"/>
    <circle class="cls-5" cx="168.45" cy="172.38" r="3"/>
  </g>
</svg>
