<svg xmlns="http://www.w3.org/2000/svg" viewBox="0 0 293.22 275.52">
  <defs>
    <style>
      .cls-1 {
        fill: #4addff;
      }

      .cls-2 {
        fill: #c0d7e2;
      }

      .cls-3 {
        fill: #ffdeb9;
      }

      .cls-4 {
        fill: #ffa827;
      }

      .cls-5 {
        fill: #f0534e;
      }

      .cls-6 {
        opacity: 0.16;
      }

      .cls-7 {
        fill: #d37416;
      }

      .cls-8 {
        fill: #677182;
        opacity: 0.5;
      }

      .cls-9 {
        fill: #3d3134;
      }

      .cls-10 {
        fill: none;
      }

      .cls-11 {
        fill: #fff;
      }
    </style>
  </defs>
  <g id="bubble">
    <path class="cls-1" d="M285.9,91.83c2.43,6.61,15.64,36.84,9.73,76.44A143.54,143.54,0,0,1,284,207c-26.3,57-88.29,92.92-115.46,83.8a121.59,121.59,0,0,0-17-5,118.6,118.6,0,0,0-30.62-2.39c-23.2.74-67-22.31-93.16-61C19.48,210.25,3.6,184.6,3.92,148.78c.35-38.57,24.84-65,29.24-69.79C56.4,53.64,78.67,53.63,119.9,34,138.67,25,133.84,25.18,142.69,22c47.25-16.83,93.47,11.35,96.17,13C270.17,54.82,282.9,83.67,285.9,91.83Z" transform="translate(-3.92 -16.69)"/>
  </g>
  <g id="pen">
    <g id="background">
      <rect class="cls-2" x="164.28" y="156.89" width="19.57" height="32.97" transform="translate(-75.53 157.18) rotate(-45)"/>
      <polygon class="cls-2" points="141.09 113.79 127.26 127.63 104.9 105.27 103.42 104.12 117.42 90.12 118.74 91.44 141.09 113.79"/>
      <polygon class="cls-3" points="167.02 96.44 186.02 93.44 182.68 112.38 178.92 115.44 164.02 100.09 167.02 96.44"/>
      <path class="cls-4" d="M185.94,129.13l-15-15-51,50,16,16Z" transform="translate(-3.92 -16.69)"/>
      <polygon class="cls-5" points="130.02 164.44 114.02 148.44 102.02 160.44 119.02 177.44 130.02 164.44"/>
    </g>
    <g id="shadow">
      <rect class="cls-6" x="119.57" y="116.29" width="2.93" height="31.62" transform="translate(-61.88 107.59) rotate(-45)"/>
      <path class="cls-6" d="M155.49,168.64,177.85,191s.15-4-.85-5l-19.43-19.43Z" transform="translate(-3.92 -16.69)"/>
      <path class="cls-6" d="M187.51,129.37a15.12,15.12,0,0,1,1.15-3.81q0-.59.12-1.17l-.38-14.26s-4.58,16.34-6.58,14.61,4.43,5.39,4.43,5.39h1C187.35,129.87,187.42,129.62,187.51,129.37Z" transform="translate(-3.92 -16.69)"/>
      <rect class="cls-6" x="106.79" y="158.57" width="89.78" height="5.64" transform="translate(-73.61 137.84) rotate(-45)"/>
    </g>
    <g id="colors">
      <rect class="cls-7" x="143.7" y="127.79" width="3.98" height="53.15" rx="1.99" transform="translate(135.64 349.85) rotate(-135)"/>
      <circle class="cls-7" cx="164.02" cy="115.44" r="2"/>
      <rect class="cls-7" x="177.83" y="118.06" width="4.02" height="15.33" rx="1.78" transform="translate(391.98 70.76) rotate(135)"/>
      <rect class="cls-8" x="162.18" y="161.84" width="4" height="16" rx="2" transform="translate(156.26 389.34) rotate(-135)"/>
      <rect class="cls-8" x="171.37" y="171.03" width="4" height="16" rx="2" transform="translate(165.45 411.53) rotate(-135)"/>
      <rect class="cls-8" x="127.97" y="127.63" width="4" height="16" rx="2" transform="translate(130.05 -68.86) rotate(45)"/>
      <rect class="cls-8" x="118.77" y="118.44" width="4" height="16" rx="2" transform="translate(120.86 -65.06) rotate(45)"/>
    </g>
    <g id="border">
      <path class="cls-9" d="M196.06,178.43l-17,17a1.76,1.76,0,0,1-2.51,0L175,193.84l0,0-22.36-22.36,2.83-2.82L177.85,191l13.83-13.84L169.33,154.8l2.82-2.83,22.92,22.91a1.69,1.69,0,0,1,.2.25l.79.79A1.76,1.76,0,0,1,196.06,178.43Z" transform="translate(-3.92 -16.69)"/>
      <g>
        <rect class="cls-10" x="112.96" y="169.89" width="14.76" height="19.57" transform="translate(-95.72 121.03) rotate(-45)"/>
        <polygon class="cls-10" points="181.45 111.8 184.04 95.38 167.61 97.96 117.57 148.01 131.4 161.85 181.45 111.8"/>
        <path class="cls-9" d="M190,107.68l-19.58,3.08a1.76,1.76,0,0,0-1,.48,1.94,1.94,0,0,0-.55.38l-18.23,18.23-.31.32-.37.36L147.53,133l-13.84,13.83-2.55,2.55L104.82,175.7a1.55,1.55,0,0,0-.19.24l-.94.93a1.59,1.59,0,0,0,0,2.25l17.25,17.25a1.59,1.59,0,0,0,2.25,0l1.7-1.71,0,0,28.31-28.31L167,152.49l21.28-21.28a1.7,1.7,0,0,0,.38-.55,1.82,1.82,0,0,0,.59-1l3.09-19.69C192.94,107.13,190.51,107.59,190,107.68ZM122,191.81,108.2,178l10.44-10.44,13.84,13.84Zm65.84-79.26-2.51,15.93-50.05,50.05L121.48,164.7l15-15,13.84-13.83,20.74-20.75a1.62,1.62,0,0,1,.46-.33,1.69,1.69,0,0,1,.56-.19l4.24-.67,11.11-1.75h.05a.37.37,0,0,1,.37.35S187.88,112.53,187.88,112.55Z" transform="translate(-3.92 -16.69)"/>
      </g>
      <path class="cls-9" d="M122.66,108.13,108.82,122l22.36,22.36-2.83,2.83L106,124.79l0,0-1.58-1.57a1.78,1.78,0,0,1,0-2.51l17-17a1.76,1.76,0,0,1,2.51,0l.79.79a1.69,1.69,0,0,1,.25.2l22.91,22.91L145,130.48Z" transform="translate(-3.92 -16.69)"/>
    </g>
    <g id="light">
      <circle class="cls-11" cx="112.08" cy="158.31" r="1"/>
      <rect class="cls-11" x="114.79" y="176.26" width="1.41" height="8.49" rx="0.71" transform="translate(-97.72 117.85) rotate(-45)"/>
    </g>
  </g>
</svg>
