<svg xmlns="http://www.w3.org/2000/svg" viewBox="0 0 291.35 295">
  <defs>
    <style>
      .cls-1 {
        fill: #ec5971;
      }

      .cls-2 {
        fill: #3d3134;
      }

      .cls-3 {
        fill: #ffc755;
      }

      .cls-4 {
        fill: #ed6263;
      }

      .cls-5 {
        fill: none;
      }

      .cls-6 {
        fill: #3d3135;
      }
    </style>
  </defs>
  <g id="Background">
    <path class="cls-1" d="M227.49,41.85c28.42,22.62,54.4,49.34,64.12,82.43,9.53,32.9,3,72-15.71,103.55-18.87,31.78-49.71,56.07-83.55,65.42-33.83,9.53-70.65,4.3-98.13-12C66.75,264.84,48.62,237.36,32.35,209c-16.44-28.6-31-57.94-27.1-84.67C9.36,97.55,31.79,73.62,57,50.45,82.07,27.27,109.55,5,138.9,3.16,168.05,1.1,199.08,19.42,227.49,41.85Z" transform="translate(-4.61 -3)"/>
  </g>
  <g id="vis">
    <rect class="cls-2" x="135.39" y="187" width="18" height="4" rx="2"/>
    <rect class="cls-2" x="135.39" y="193" width="18" height="4" rx="2"/>
    <rect class="cls-2" x="139.39" y="200" width="10" height="4" rx="2"/>
  </g>
  <g id="Calque_14" data-name="Calque 14">
    <path class="cls-3" d="M149.5,120.5A27,27,0,0,0,130,166.12l-1.13-.12L138,178l2,5,15,.83h4l2.73-3.83,4.09-11a27,27,0,0,0-16.32-48.5Z" transform="translate(-4.61 -3)"/>
  </g>
  <g id="fils">
    <path class="cls-2" d="M157,153a7,7,0,0,0-7,7v3h-2v-3a7,7,0,1,0-7,7h3v15a2,2,0,0,0,4,0V167h2v15a2,2,0,0,0,4,0V167h3a7,7,0,0,0,0-14Z" transform="translate(-4.61 -3)"/>
    <circle class="cls-4" cx="136.39" cy="157" r="3"/>
    <circle class="cls-4" cx="152.39" cy="157" r="3"/>
  </g>
  <g id="Calque_21" data-name="Calque 21">
    <path class="cls-2" d="M133,166" transform="translate(-4.61 -3)"/>
    <g>
      <path class="cls-5" d="M149,123a25.5,25.5,0,0,0-25,25.49c0,.31,0,.63,0,.94s0,.62,0,.93c0,.5.09,1,.15,1.49,0,.25.07.5.11.75.13.8.3,1.59.5,2.37,0,.15.11.41.21.75s.12.4.19.59.09.27.14.41.1.28.15.43l.18.47c.16.44.34.88.54,1.3s.44.95.69,1.42c.12.24.25.48.39.73l.28.47c.12.2.24.41.37.61.27.42.55.83.79,1.16l.23.32.4.53.07.09h0l.41.51.35.4c.25.3.54.57.81.86l.6.64a.08.08,0,0,0,0,0c.41.47.89,1,1.41,1.69l.13.17a51.54,51.54,0,0,1,3.29,4.73l.36.58c.18.29.35.58.52.88s.33.56.49.85l.52,1c.22.43.46.91.71,1.44l.09.2c.26.54.53,1.14.8,1.78a5.2,5.2,0,0,0,1,1.79l.26.28.24.23a5.22,5.22,0,0,0,.68.51,2.8,2.8,0,0,0,.41.13h12.9a2.8,2.8,0,0,0,.41-.13,5.22,5.22,0,0,0,.68-.51l.24-.23.26-.28a5.2,5.2,0,0,0,1-1.79c.27-.64.54-1.24.8-1.78l.09-.2c.25-.53.49-1,.71-1.44l.52-1c.16-.29.32-.57.49-.85s.34-.59.52-.88l.36-.58a51.54,51.54,0,0,1,3.29-4.73l.13-.17c.52-.65,1-1.22,1.41-1.69a.08.08,0,0,0,0,0l.6-.64c.27-.29.56-.56.81-.86l.35-.4.41-.51h0l.07-.09.4-.53.23-.32c.24-.33.52-.74.79-1.16.13-.2.25-.41.37-.61l.28-.47c.14-.25.27-.49.39-.73.25-.47.48-.94.69-1.42s.38-.86.54-1.3l.18-.47c.05-.15.1-.3.15-.43s.1-.28.14-.41.13-.39.19-.59.17-.6.21-.75c.2-.78.37-1.57.5-2.37,0-.25.08-.5.11-.75.06-.49.12-1,.15-1.49,0-.31,0-.62,0-.93s0-.63,0-.94A25.5,25.5,0,0,0,149,123Z" transform="translate(-4.61 -3)"/>
      <path class="cls-6" d="M149,119a29.49,29.49,0,0,0-22.13,48.41c2.6,3.26,6.19,6.24,10.1,16a3.69,3.69,0,0,0,1,1.59l1.58,1.43s.09.06.12.1A2,2,0,0,0,141,187H157a2,2,0,0,0,1.27-.47s.08-.06.12-.1L160,185a3.69,3.69,0,0,0,1-1.59c3.91-9.75,7.5-12.73,10.1-16A29.49,29.49,0,0,0,149,119Zm24.93,31.36c0,.5-.09,1-.15,1.49,0,.25-.07.5-.11.75-.13.8-.3,1.59-.5,2.37,0,.15-.11.41-.21.75s-.12.4-.19.59-.09.27-.14.41-.1.28-.15.43l-.18.47c-.16.44-.34.88-.54,1.3s-.44.95-.69,1.42c-.12.24-.25.48-.39.73l-.28.47c-.12.2-.24.41-.37.61-.27.42-.55.83-.79,1.16l-.23.32-.4.53-.07.09h0l-.41.51-.35.4c-.25.3-.54.57-.81.86l-.6.64a.08.08,0,0,1,0,0c-.41.47-.89,1-1.41,1.69l-.13.17a51.54,51.54,0,0,0-3.29,4.73l-.36.58c-.18.29-.35.58-.52.88s-.33.56-.49.85l-.52,1c-.22.43-.46.91-.71,1.44l-.09.2c-.26.54-.53,1.14-.8,1.78a5.2,5.2,0,0,1-1,1.79l-.26.28-.24.23a5.22,5.22,0,0,1-.68.51,2.8,2.8,0,0,1-.41.13h-12.9a2.8,2.8,0,0,1-.41-.13,5.22,5.22,0,0,1-.68-.51l-.24-.23-.26-.28a5.2,5.2,0,0,1-1-1.79c-.27-.64-.54-1.24-.8-1.78l-.09-.2c-.25-.53-.49-1-.71-1.44l-.52-1c-.16-.29-.32-.57-.49-.85s-.34-.59-.52-.88l-.36-.58a51.54,51.54,0,0,0-3.29-4.73l-.13-.17c-.52-.65-1-1.22-1.41-1.69a.08.08,0,0,1,0,0L131,166c-.27-.29-.56-.56-.81-.86l-.35-.4-.41-.51h0l-.07-.09-.4-.53-.23-.32c-.24-.33-.52-.74-.79-1.16-.13-.2-.25-.41-.37-.61l-.28-.47c-.14-.25-.27-.49-.39-.73-.25-.47-.48-.94-.69-1.42s-.38-.86-.54-1.3l-.18-.47c0-.15-.1-.3-.15-.43s-.1-.28-.14-.41-.13-.39-.19-.59-.17-.6-.21-.75c-.2-.78-.37-1.57-.5-2.37,0-.25-.08-.5-.11-.75-.06-.49-.12-1-.15-1.49,0-.31,0-.62,0-.93s0-.63,0-.94a25,25,0,1,1,50,0c0,.31,0,.63,0,.94S174,150.06,173.93,150.37Z" transform="translate(-4.61 -3)"/>
    </g>
  </g>
  <g id="light">
    <rect class="cls-3" x="142.39" y="91" width="4" height="14" rx="2"/>
    <rect class="cls-3" x="187.11" y="112.74" width="4.27" height="14" rx="2.13" transform="translate(135.49 -101.74) rotate(45)"/>
    <rect class="cls-3" x="107.62" y="112.74" width="4.27" height="14" rx="2.13" transform="translate(267.43 123.8) rotate(135)"/>
  </g>
</svg>
