<svg xmlns="http://www.w3.org/2000/svg" viewBox="0 0 276.29 276.03">
  <defs>
    <style>
      .cls-1 {
        fill: #ec5971;
      }

      .cls-2, .cls-4 {
        fill: #3d3134;
      }

      .cls-3 {
        fill: #fff;
      }

      .cls-4 {
        opacity: 0.25;
      }
    </style>
  </defs>
  <g id="Background">
    <path class="cls-1" d="M94,18.93A115.35,115.35,0,0,1,146.2,17c25.6,5.39,31.77,17.35,54.26,31.8C213.09,57,219.89,59,229,63.67c9.59,4.92,51.85,31.18,57.33,66,5.44,34.53-31.17,37.46-48,95.66-3,10.29-10.11,38.86-33.51,51.17h0c-2.08,1.08-4.21,2.16-5.6,2.82-5.1,2.42-30.92,14.14-66.14,11.13a135.81,135.81,0,0,1-61.51-21C38.24,248,4.05,205.09,11.67,164.67c.62-3.34.69-2.15,4-13C35.19,87.61,22.78,70.32,41,50.33,61.32,28.05,86.07,21.05,94,18.93Z" transform="translate(-10.59 -14.92)"/>
    <path class="cls-1" d="M72.33-69.67" transform="translate(-10.59 -14.92)"/>
    <path class="cls-1" d="M203.67-61" transform="translate(-10.59 -14.92)"/>
    <path class="cls-1" d="M317-87" transform="translate(-10.59 -14.92)"/>
  </g>
  <g id="Calque_3" data-name="Calque 3">
    <rect class="cls-2" x="109" y="129" width="43" height="57" rx="7" transform="translate(277.41 12.08) rotate(90)"/>
    <path class="cls-2" d="M118.1,164.71a5.77,5.77,0,0,0-6,5.79v13c0,3.3,1.9,4.09,4.24,1.76L132,169.6c2.33-2.34,1.54-4.34-1.76-4.46ZM115.51,173a6,6,0,0,1,6-6h2.1c3.3,0,4.09,1.92,1.75,4.26l-5.6,5.6c-2.34,2.34-4.25,1.55-4.25-1.75Z" transform="translate(-10.59 -14.92)"/>
    <path class="cls-3" d="M116.22,180.41c-.39.39-.71.26-.71-.29V168a1,1,0,0,1,1-1l12.1,0c.55,0,.68.32.29.71Z" transform="translate(-10.59 -14.92)"/>
    <rect class="cls-3" x="95.41" y="125.08" width="49" height="35" rx="4"/>
    <g id="Calque_8" data-name="Calque 8">
      <path class="cls-4" d="M130.41,130.58h17.44a0,0,0,0,1,0,0v13a0,0,0,0,1,0,0H137a6.58,6.58,0,0,1-6.58-6.58v-6.42A0,0,0,0,1,130.41,130.58Z"/>
    </g>
    <rect class="cls-2" x="148" y="105" width="43" height="57" rx="7" transform="translate(292.41 -50.92) rotate(90)"/>
    <g>
      <path class="cls-2" d="M169.59,140.64c-3.3.12-4.09,2.12-1.75,4.46l15.66,15.66c2.33,2.33,4.24,1.54,4.24-1.76V146a5.77,5.77,0,0,0-6-5.79Zm14.74,10c0,3.3-1.91,4.09-4.24,1.75l-5.61-5.6c-2.33-2.34-1.54-4.25,1.76-4.26h2.09a6,6,0,0,1,6,6Z" transform="translate(-10.59 -14.92)"/>
      <path class="cls-3" d="M183.62,155.91c.39.39.71.26.71-.29V143.5a1,1,0,0,0-1-1l-12.09,0c-.55,0-.68.32-.29.71Z" transform="translate(-10.59 -14.92)"/>
    </g>
    <rect class="cls-3" x="145" y="116" width="49" height="35" rx="4" transform="translate(328.41 252.08) rotate(-180)"/>
  </g>
  <g id="Calque_6" data-name="Calque 6">
    <path class="cls-2" d="M137.35,162.42l-5.25-10.55a1.41,1.41,0,0,0-1.93-.49,1.67,1.67,0,0,0-.68.66.75.75,0,0,0-.11.13l-5.08,10.27a1.46,1.46,0,0,0,.76,1.87,1.38,1.38,0,0,0,1.91-.47l1.41-2.84h4.89l1.4,2.82a1.41,1.41,0,0,0,1.93.49A1.47,1.47,0,0,0,137.35,162.42ZM129.86,158l1-1.93,1,1.93Z" transform="translate(-10.59 -14.92)"/>
    <rect class="cls-2" x="163.46" y="133.17" width="3" height="9.44" rx="1.5" transform="translate(242.18 319.22) rotate(-154)"/>
    <rect class="cls-2" x="172.51" y="133.17" width="3" height="9.44" rx="1.5" transform="translate(-53.43 75.32) rotate(-26)"/>
    <path class="cls-2" d="M175.5,128H171v-1a1.5,1.5,0,0,0-3,0v1h-4.5a1.5,1.5,0,0,0,0,3h12a1.5,1.5,0,0,0,0-3Z" transform="translate(-10.59 -14.92)"/>
  </g>
</svg>
