<svg id="Calque_1" data-name="Calque 1" xmlns="http://www.w3.org/2000/svg" viewBox="0 0 242.04 45.91">
  <defs>
    <style>
      .cls-1 {
        fill: #3d3134;
      }

      .cls-2 {
        fill: #cfcfcf;
      }
    </style>
  </defs>
  <path class="cls-1" d="M151.47,20.16c-5.88-5.81-14.69-3.7-15.13-3.58a15.16,15.16,0,0,0-10.63,9.59A16,16,0,0,0,125.63,37a15.82,15.82,0,0,0,4.92,7c5.54,4.42,13.46,4.15,17.88,1.32.8-.51,3.43-2.21,3.32-4.31a3.11,3.11,0,0,0-.83-1.87,2.76,2.76,0,0,0-3.59-.16A9.19,9.19,0,0,1,140,41.44a8.49,8.49,0,0,1-7.45-6,1.88,1.88,0,0,1,.19-1.65,3.42,3.42,0,0,1,.91-.92,3.32,3.32,0,0,1,2-.54l.88,0a4.83,4.83,0,0,0,9.56.94L152,34a2.43,2.43,0,0,0,1.68-.38,4.88,4.88,0,0,0,1.5-1.56C157.2,28.59,154.44,23.09,151.47,20.16Zm-5.09,8c-1.83-.3-2.56-.55-4.33-.94-3-.67-4.84.4-6.94-.87a1.24,1.24,0,0,1-.62-.67c-.32-1.06,1.41-2.58,2.78-3.29a7.58,7.58,0,0,1,4.67-.67,8.58,8.58,0,0,1,5.11,2.69,5.71,5.71,0,0,1,1.24,3C148.28,27.71,147.61,28.32,146.38,28.12Z" transform="translate(-0.98 -1.68)"/>
  <path class="cls-1" d="M169.82,32a4.88,4.88,0,0,0,1.5,1.56A2.42,2.42,0,0,0,173,34l5.85-.68a4.83,4.83,0,0,0,9.56-.94l.87,0a3.21,3.21,0,0,1,2.95,1.46,1.88,1.88,0,0,1,.2,1.65,8.49,8.49,0,0,1-7.45,6A9.19,9.19,0,0,1,177.63,39a2.76,2.76,0,0,0-3.59.16,3.2,3.2,0,0,0-.84,1.87c-.11,2.1,2.53,3.8,3.33,4.31,4.41,2.83,12.34,3.1,17.88-1.32a16,16,0,0,0,4.84-17.87,15.18,15.18,0,0,0-10.63-9.59c-.44-.12-9.26-2.23-15.13,3.58C170.52,23.09,167.76,28.59,169.82,32Zm6.84-4.6a5.88,5.88,0,0,1,1.24-3A8.62,8.62,0,0,1,183,21.68a7.58,7.58,0,0,1,4.67.67c1.36.71,3.1,2.23,2.78,3.29a1.24,1.24,0,0,1-.62.67c-2.1,1.27-3.93.2-6.94.87-1.77.39-2.5.64-4.34.94C177.35,28.32,176.68,27.71,176.66,27.41Z" transform="translate(-0.98 -1.68)"/>
  <path class="cls-2" d="M1,5.4V30.65a17.84,17.84,0,0,0,1.88,8.16A15.45,15.45,0,0,0,7,43.9a16.77,16.77,0,0,0,10.5,3.5,17.13,17.13,0,0,0,9.94-3.33,15.22,15.22,0,0,0,5-5.94l0-.05a14.45,14.45,0,0,0,1.24-6L33.7,6c0-2.29-1-4.12-3.57-4.3-3.29-.05-4.11,2.8-4,4.43l-.06,24.91a9.18,9.18,0,0,1-2.7,6.57A8.84,8.84,0,0,1,18.52,40a9,9,0,0,1-6-1.32,8.55,8.55,0,0,1-2.73-2.91,9.85,9.85,0,0,1-1.23-4.85L8.43,5.74s0-4.05-3.73-4.06h0A3.73,3.73,0,0,0,1,5.4Z" transform="translate(-0.98 -1.68)"/>
  <path class="cls-1" d="M93.57,39.4a5.55,5.55,0,0,1,3,.76c1.6.85,5.07,2.38,7.06-.38a2.93,2.93,0,0,0,.23-2.48,4.2,4.2,0,0,0-.33-.67c-1.1-1.67-4.25-2.33-4.25-2.33-2.06-.47-6.4-1.28-8.46-5a9.06,9.06,0,0,1-1-4.63A9.21,9.21,0,0,1,91,20.39a10.07,10.07,0,0,1,5.5-4.31,11.7,11.7,0,0,1,4.63-.7c3.33.16,7.53,1.73,8.14,4.59a3.38,3.38,0,0,1-1,3,4,4,0,0,1-3.27.81,7.49,7.49,0,0,1-1.6-.53c-.27-.11-.52-.24-.54-.25a7.86,7.86,0,0,0-2.06-.81,3.12,3.12,0,0,0-2.61.61,2.79,2.79,0,0,0-.83,2.59,2.48,2.48,0,0,0,.18.53c.59,1.21,2.23,1.66,3.14,1.92a28.47,28.47,0,0,1,6.25,2.29,9.34,9.34,0,0,1,3.75,4,9.76,9.76,0,0,1-.16,8.08,10.19,10.19,0,0,1-5.34,4.72l-.33.12c-2.25.83-9.47,1.39-13-2.29-2-2.15-.72-4-.61-4.11h0A3,3,0,0,1,93.57,39.4Z" transform="translate(-0.98 -1.68)"/>
  <path class="cls-1" d="M107.72,25.37" transform="translate(-0.98 -1.68)"/>
  <path class="cls-1" d="M108.92,24.54" transform="translate(-0.98 -1.68)"/>
  <path class="cls-1" d="M213.52,43.19V20.13a3.59,3.59,0,0,1,3.79-4,3.87,3.87,0,0,1,3.29,2.65,10.17,10.17,0,0,1,1.1-.86,13.09,13.09,0,0,1,7.79-2.21,13.9,13.9,0,0,1,8.75,3.64A13.22,13.22,0,0,1,243,30.23c0,.89,0,10.31,0,13.43,0,.81-.37,3.63-3.38,3.63-3.53,0-3.43-3.57-3.43-3.94l-.1-8.48c.11-3.69-.63-11.13-7.48-11-8.07-.08-7.91,7.36-7.91,10.67l-.08,8.73a4.06,4.06,0,0,1-1.08,2.94,3.63,3.63,0,0,1-2.49,1.07,3.41,3.41,0,0,1-2.63-1A3.83,3.83,0,0,1,213.52,43.19Z" transform="translate(-0.98 -1.68)"/>
  <path class="cls-2" d="M47,43.19V20.13a3.59,3.59,0,0,1,3.79-4,3.87,3.87,0,0,1,3.29,2.65,12.67,12.67,0,0,1,1.1-.86A13.09,13.09,0,0,1,63,15.67a14,14,0,0,1,8.76,3.64,13.24,13.24,0,0,1,4.77,10.92c0,.89,0,10.31,0,13.43,0,.81-.38,3.63-3.38,3.63-3.54,0-3.43-3.57-3.43-3.94l-.1-8.48c.1-3.69-.63-11.13-7.49-11-8.06-.08-7.91,7.36-7.9,10.67l-.08,8.73A4.08,4.08,0,0,1,53,46.16a3.59,3.59,0,0,1-2.48,1.07,3.41,3.41,0,0,1-2.63-1A3.85,3.85,0,0,1,47,43.19Z" transform="translate(-0.98 -1.68)"/>
  <path class="cls-1" d="M149,41" transform="translate(-0.98 -1.68)"/>
</svg>
