<svg xmlns="http://www.w3.org/2000/svg" viewBox="0 0 295.56 294.9">
  <defs>
    <style>
      .cls-1 {
        fill: #5a2989;
      }

      .cls-2 {
        fill: #c13080;
      }

      .cls-3 {
        fill: #ec5971;
      }

      .cls-4 {
        fill: #ff76bb;
      }

      .cls-5 {
        fill: #ed4f8f;
      }

      .cls-6 {
        fill: #3d3135;
      }

      .cls-7 {
        fill: none;
      }

      .cls-8 {
        fill: #456b93;
      }
    </style>
  </defs>
  <g id="Background">
    <path class="cls-1" d="M371,208" transform="translate(-2.6 -2.27)"/>
    <path class="cls-2" d="M145.29,129.69c-.29,1.31-3,4.58-3,4.58S140,139,136,138s-5.39,1.9-5.39,1.9,2,5.4,10.19,3.75,5.76-5.54,5.76-5.54l.34-6.62-1.61-1.8" transform="translate(-2.6 -2.27)"/>
    <path class="cls-3" d="M280.53,211.35c-11.88,18.33-25.73,30.28-54.94,53.24-20.81,16.36-31.33,24.4-40.17,27.6-48.77,17.7-114-14.4-132.87-55.62-2.92-6.39-1.93-6.89-6.18-16.48C30.48,184.26,8.94,181.43,4.15,160.35-1.31,136.37,8.34,115.6,23,84,36.46,55.07,45.94,37,67.37,21.22c30.86-22.7,66.44-19,72.87-18.33C157.49,4.6,180.88,18.06,227.65,45c30.46,17.54,35.77,22.21,40.4,27.15,25.13,26.78,28.66,59.46,29.56,68A112.07,112.07,0,0,1,280.53,211.35Z" transform="translate(-2.6 -2.27)"/>
  </g>
  <g id="Calque_17" data-name="Calque 17">
    <path class="cls-4" d="M148,119.31c1.65,1,.84,5.23,0,6a2.71,2.71,0,0,0-.69,1,1.87,1.87,0,0,0-.12.48c-.27,1.69,1.65,2.5,1.81,4.53.07.93-.29,1.21-.85,2.84a18.8,18.8,0,0,0-1,5.41l1,.21-2,5.28a5.17,5.17,0,0,0,1,5.29c1.28,1.4,2.42,3.17,1.13,4.17a2.42,2.42,0,0,0-.33,3.8v1c-1.7,1.69-2,3.05-2,4,.07,1.91,1.63,2.25,2,5a15.31,15.31,0,0,1,0,3.64c-.06.48-.14.87-.2,1.16l-1.29,4.51a5.18,5.18,0,0,1-1.89,2.74l-3.78,2.8a5.26,5.26,0,0,1-2.36,1l-6.24.88a5.16,5.16,0,0,1-4-1.08L125,181.31l-1.87-1.53a5.08,5.08,0,0,0-1.59-.89l-2.81-1a5.2,5.2,0,0,1-2.7-2.14l-3.72-6a4.94,4.94,0,0,0-.73-.91l-1.72-1.73a5.13,5.13,0,0,1-1.25-2L106.88,160a5.19,5.19,0,0,1,.81-4.81l3.32-4.28a5.17,5.17,0,0,0,.54-5.47,5.18,5.18,0,0,1-.55-2.32v-6.43a5.14,5.14,0,0,1,1.77-3.89l6.08-5.33a3.65,3.65,0,0,1,.31-.24l1.75-1.32A5.2,5.2,0,0,0,123,121.7v-.59a5.18,5.18,0,0,1,1.34-3.51l3.94-4.35a5.17,5.17,0,0,1,4.35-1.68l5.34.54a14.42,14.42,0,0,1,3.41,1.78,14.85,14.85,0,0,1,4.65,5.42A2.27,2.27,0,0,1,148,119.31Z" transform="translate(-2.6 -2.27)"/>
    <path class="cls-5" d="M137.74,124.57c.29,1-1.7,2.66-3.74,3.43s-3.16.1-4,1c-1.32,1.42.29,4.06-1,5a2,2,0,0,1-2,0c-1.66-1-1.55-4.71-1.55-4.71l3.38-4.72,5.78-1C137.37,123.66,137.69,124.37,137.74,124.57Z" transform="translate(-2.6 -2.27)"/>
    <path class="cls-5" d="M140,152c2.08,1.3,3.27,3.23,3,5a3.86,3.86,0,0,1-1,2c-2.07,2.14-5.28.21-7,2-1.28,1.33-1.14,4.1,0,5,.86.68,1.93,0,4,0a11.06,11.06,0,0,1,5.38,1.44l1.91-5.14v-7.54Z" transform="translate(-2.6 -2.27)"/>
    <path class="cls-2" d="M148,167" transform="translate(-2.6 -2.27)"/>
    <path class="cls-4" d="M152.46,119.31c-1.64,1-.84,5.23,0,6a2.69,2.69,0,0,1,.7,1,2.45,2.45,0,0,1,.11.48c.28,1.69-1.64,2.5-1.81,4.53-.07.93.29,1.21.85,2.84a19.09,19.09,0,0,1,1,5.41l-1,.21,1.94,5.28a5.18,5.18,0,0,1-1,5.29c-1.29,1.4-2.42,3.17-1.14,4.17a2.42,2.42,0,0,1,.33,3.8v1c1.71,1.69,2,3.05,2,4-.07,1.91-1.63,2.25-2,5a14.88,14.88,0,0,0,0,3.64c.06.48.13.87.19,1.16l1.29,4.51a5.14,5.14,0,0,0,1.9,2.74l3.78,2.8a5.17,5.17,0,0,0,2.35,1l6.24.88a5.18,5.18,0,0,0,4-1.08l3.25-2.61,1.87-1.53a5.2,5.2,0,0,1,1.59-.89l2.82-1a5.14,5.14,0,0,0,2.69-2.14l3.72-6a4.94,4.94,0,0,1,.73-.91l1.72-1.73a5,5,0,0,0,1.25-2l1.74-5.19a5.17,5.17,0,0,0-.82-4.81l-3.31-4.28a5.15,5.15,0,0,1-.54-5.47,5.17,5.17,0,0,0,.54-2.32v-6.43a5.17,5.17,0,0,0-1.76-3.89l-6.09-5.33-.3-.24-1.76-1.32a5.17,5.17,0,0,1-2.06-4.18v-.59a5.18,5.18,0,0,0-1.34-3.51l-3.93-4.35a5.19,5.19,0,0,0-4.35-1.68l-5.34.54a14.23,14.23,0,0,0-3.41,1.78,14.9,14.9,0,0,0-4.66,5.42A2.27,2.27,0,0,0,152.46,119.31Z" transform="translate(-2.6 -2.27)"/>
    <path class="cls-5" d="M162.72,124.57c-.29,1,1.7,2.66,3.74,3.43s3.16.1,4,1c1.32,1.42-.29,4.06,1,5a2,2,0,0,0,2,0c1.67-1,1.55-4.71,1.55-4.71l-3.38-4.72-5.78-1C163.09,123.66,162.78,124.37,162.72,124.57Z" transform="translate(-2.6 -2.27)"/>
    <path class="cls-5" d="M160.46,152c-2.08,1.3-3.26,3.23-3,5a3.86,3.86,0,0,0,1,2c2.08,2.14,5.28.21,7,2,1.28,1.33,1.14,4.1,0,5-.86.68-1.92,0-4,0a11,11,0,0,0-5.37,1.44l-1.91-5.14v-7.54Z" transform="translate(-2.6 -2.27)"/>
    <path class="cls-2" d="M152.46,167" transform="translate(-2.6 -2.27)"/>
  </g>
  <g id="Calque_24" data-name="Calque 24">
    <path class="cls-5" d="M124.5,169.49c.62.41,1.24.72,1.5.51s-.41-1.5,0-2,2.91-.36,4,1c1.87,2.32-1.7,5.77,0,9,1.51,2.86,5.8,3,6,3a7.87,7.87,0,0,0,7-4,8.27,8.27,0,0,0-2-10,10.23,10.23,0,0,1,5,11.15,10.12,10.12,0,0,1-7.46,7.3l-10-.4-5.67-6.18Z" transform="translate(-2.6 -2.27)"/>
    <path class="cls-5" d="M122,160c.36.79-1,2.25-2,3s-1.26.49-2,1a5.13,5.13,0,0,0-2,5c.42,2.22,2.38,4.13,4,4,2.22-.18,2.68-4.34,6-5a1.62,1.62,0,0,1,1,0c2.62,1.09.57,11.91-1,12a4,4,0,0,1-2-.87h-3.36l-5.72-3.45-3.34-6.78,2.75-6.6,3.55-4.12c.12.08.32.21.56.34C120.51,159.69,121.7,159.35,122,160Z" transform="translate(-2.6 -2.27)"/>
    <path class="cls-5" d="M126.44,151.24c.57.65.32,1.91-.09,2.68A4.6,4.6,0,0,1,123,156c-4.15.68-6.2-3.78-9-3-2.61.73-4,6.27-3,7s3.94-3.64,8-3c.19,0,1.89.3,2,1,.22,1.44-6.56,2.15-9,7-.59,1.18-.57,1.94-1,2-1.31.18-3.36-6.66-5-13l11.46-6,3.78,4.18C123.49,150.54,125.69,150.36,126.44,151.24Z" transform="translate(-2.6 -2.27)"/>
    <path class="cls-5" d="M122,140c-1.07.16-4,.47-5-1-1.48-2.18,1.7-7.66,5-8,2.94-.3,5.41,3.48,6,3,.41-.34-1.09-2.43-2.28-6.18a28,28,0,0,1-.78-2.93l-5.44,2.22L111,137.56l1.63,8.55L117,147Z" transform="translate(-2.6 -2.27)"/>
    <path class="cls-5" d="M126.27,139.63s3.27,2.42,0,4.9-5.79.84-5,4.15S119,148,119,148l1.64-4.72,2.83-2.5,2.8-1.15" transform="translate(-2.6 -2.27)"/>
    <path class="cls-5" d="M148.8,122.77c0,1.26-1.61,2-2.66,2.14a4.09,4.09,0,0,1-2.64-.68c-3.88-2.37-3.29-6.38-6.5-8.23-2.47-1.42-6.2-1-8,1-1,1.15-1.72,3.14-1,4,1,1.23,4.12-.76,7,1,.51.31,1,.63,1,1-.15,1.48-9.48,3.09-11.77-.24l-1.34-4h0L130,111l5.9-.44L143,114l4.32,6.72A2.42,2.42,0,0,1,148.8,122.77Z" transform="translate(-2.6 -2.27)"/>
    <path class="cls-2" d="M125,141" transform="translate(-2.6 -2.27)"/>
    <path class="cls-2" d="M128,158" transform="translate(-2.6 -2.27)"/>
    <path class="cls-2" d="M146,109" transform="translate(-2.6 -2.27)"/>
    <path class="cls-2" d="M120,174" transform="translate(-2.6 -2.27)"/>
    <path class="cls-2" d="M122,183" transform="translate(-2.6 -2.27)"/>
    <path class="cls-5" d="M148.52,129.82c-.7-1-2.81-2.77-4.14-2.2a1.61,1.61,0,0,0-.8.84C143,130,145,132,145,132a7,7,0,0,1,.58,1.93,3.2,3.2,0,0,1-1.2,2.84c-2.08,1.41-6-2.1-7.38-.77-.55.52-.17,1.26-1,2s-1.63.44-2,1c-.49.76.37,2.28,1,3,2.46,2.8,8.23,1.22,9,1C148.29,137.62,150.32,132.37,148.52,129.82Z" transform="translate(-2.6 -2.27)"/>
    <path class="cls-2" d="M182,228" transform="translate(-2.6 -2.27)"/>
    <path class="cls-2" d="M130,162" transform="translate(-2.6 -2.27)"/>
    <path class="cls-5" d="M176,169.49c-.61.41-1.23.72-1.5.51s.41-1.5,0-2-2.9-.36-4,1c-1.86,2.32,1.71,5.77,0,9-1.5,2.86-5.8,3-6,3a7.88,7.88,0,0,1-7-4,8.28,8.28,0,0,1,2-10,10.22,10.22,0,0,0-5,11.15,10.1,10.1,0,0,0,7.46,7.3l10-.4,5.67-6.18Z" transform="translate(-2.6 -2.27)"/>
    <path class="cls-5" d="M178.46,160c-.36.79.95,2.25,2,3s1.26.49,2,1a5.12,5.12,0,0,1,2,5c-.41,2.22-2.38,4.13-4,4-2.22-.18-2.67-4.34-6-5a1.62,1.62,0,0,0-1,0c-2.62,1.09-.57,11.91,1,12a3.93,3.93,0,0,0,2-.87h3.36l5.73-3.45,3.33-6.78-2.75-6.6-3.54-4.12c-.13.08-.33.21-.57.34C180,159.69,178.76,159.35,178.46,160Z" transform="translate(-2.6 -2.27)"/>
    <path class="cls-5" d="M174.29,150.83a2.66,2.66,0,0,0,0,2.69,4.59,4.59,0,0,0,3.27,2.21c4.12.85,6.35-3.52,9.11-2.63,2.58.83,3.79,6.43,2.72,7.12s-3.79-3.8-7.87-3.33c-.2,0-1.91.22-2,.92-.28,1.43,6.47,2.41,8.71,7.36.54,1.2.49,2,.92,2,1.3.24,3.62-6.52,5.52-12.79L183.39,148l-3.95,4C177.26,150.26,175.07,150,174.29,150.83Z" transform="translate(-2.6 -2.27)"/>
    <path class="cls-5" d="M178.46,140c1.08.16,4,.47,5-1,1.49-2.18-1.69-7.66-5-8-2.93-.3-5.4,3.48-6,3-.41-.34,1.09-2.43,2.29-6.18a30.09,30.09,0,0,0,.77-2.93l5.44,2.22,8.5,10.45-1.62,8.55-4.38.89Z" transform="translate(-2.6 -2.27)"/>
    <path class="cls-5" d="M174.2,139.63s-3.27,2.42,0,4.9,5.79.84,5,4.15,2.23-.68,2.23-.68l-1.64-4.72-2.83-2.5-2.79-1.15" transform="translate(-2.6 -2.27)"/>
    <path class="cls-5" d="M151.66,122.77c0,1.26,1.62,2,2.66,2.14a4.07,4.07,0,0,0,2.64-.68c3.88-2.37,3.3-6.38,6.5-8.23,2.47-1.42,6.21-1,8,1,1,1.15,1.72,3.14,1,4-1,1.23-4.11-.76-7,1-.5.31-1,.63-1,1,.15,1.48,9.49,3.09,11.77-.24l1.35-4h0L170.46,111l-5.89-.44L157.46,114l-4.32,6.72A2.46,2.46,0,0,0,151.66,122.77Z" transform="translate(-2.6 -2.27)"/>
    <path class="cls-2" d="M175.46,141" transform="translate(-2.6 -2.27)"/>
    <path class="cls-2" d="M172.46,158" transform="translate(-2.6 -2.27)"/>
    <path class="cls-2" d="M154.46,109" transform="translate(-2.6 -2.27)"/>
    <path class="cls-2" d="M180.46,174" transform="translate(-2.6 -2.27)"/>
    <path class="cls-2" d="M178.46,183" transform="translate(-2.6 -2.27)"/>
    <path class="cls-5" d="M152,129.82c.69-1,2.81-2.77,4.14-2.2a1.62,1.62,0,0,1,.79.84c.64,1.49-1.42,3.54-1.42,3.54a7.2,7.2,0,0,0-.57,1.93,3.2,3.2,0,0,0,1.2,2.84c2.08,1.41,6-2.1,7.37-.77.55.52.17,1.26,1,2s1.64.44,2,1c.5.76-.36,2.28-1,3-2.45,2.8-8.23,1.22-9,1C152.17,137.62,150.15,132.37,152,129.82Z" transform="translate(-2.6 -2.27)"/>
    <path class="cls-2" d="M170.46,162" transform="translate(-2.6 -2.27)"/>
  </g>
  <g id="Calque_13" data-name="Calque 13">
    <path class="cls-6" d="M147.32,149.31" transform="translate(-2.6 -2.27)"/>
    <path class="cls-6" d="M149,131.05a1.91,1.91,0,0,0-1-1.73h0c-2-1-2,1-2,1s2.16,6.23-2,9c-3,2-5.25,1.28-5.25,1.28s-2.26-.28-2.75.72a1.29,1.29,0,0,0,0,1c.81,1.9,6.19,1.73,9.67.5a4.85,4.85,0,0,0,2.33-1.5,4.79,4.79,0,0,0,1-2.85Z" transform="translate(-2.6 -2.27)"/>
    <path class="cls-6" d="M153,148.31" transform="translate(-2.6 -2.27)"/>
    <path class="cls-6" d="M152.68,148.57" transform="translate(-2.6 -2.27)"/>
    <path class="cls-6" d="M147,149.57" transform="translate(-2.6 -2.27)"/>
    <path class="cls-6" d="M153.14,149.31" transform="translate(-2.6 -2.27)"/>
    <path class="cls-6" d="M151.46,131.05a1.91,1.91,0,0,1,1-1.73h0c2-1,2,1,2,1s-2.16,6.23,2,9c3,2,5.25,1.28,5.25,1.28s2.26-.28,2.75.72a1.29,1.29,0,0,1,0,1c-.81,1.9-6.19,1.73-9.67.5a4.85,4.85,0,0,1-2.33-1.5,4.79,4.79,0,0,1-1-2.85Z" transform="translate(-2.6 -2.27)"/>
    <path class="cls-6" d="M147.46,148.31" transform="translate(-2.6 -2.27)"/>
    <path class="cls-6" d="M147.79,148.57" transform="translate(-2.6 -2.27)"/>
    <path class="cls-6" d="M153.46,149.57" transform="translate(-2.6 -2.27)"/>
  </g>
  <g id="Calque_7" data-name="Calque 7">
    <path class="cls-6" d="M149,176.75a7.16,7.16,0,0,1-.41,2.47,11.2,11.2,0,0,1-2.59,4.09,15.16,15.16,0,0,1-16,4,12.38,12.38,0,0,1-6.75-6.18,14.13,14.13,0,0,1-1.44-4,9.35,9.35,0,0,1,.19-4.84c.66-1.89,2.7-5.1,4.64-4.75a2.58,2.58,0,0,1,1.36.75c2,4-6,4.56-1,12,2,3,6.5,3.83,10,3a10.08,10.08,0,0,0,6-4c.3-.44,3.38-5.12.83-9.29-2.14-3.49-6.44-3.7-6.83-3.71a2.46,2.46,0,0,1-2.61-1.29c-.27-.94.72-2.46,2.61-2.71,1.26-.06,5.79-.14,9,3a10.92,10.92,0,0,1,2.56,4.17,8.06,8.06,0,0,1,.44,2.71Z" transform="translate(-2.6 -2.27)"/>
    <path class="cls-6" d="M151.46,176.75a7.17,7.17,0,0,0,.42,2.47,11.18,11.18,0,0,0,2.58,4.09,15.16,15.16,0,0,0,16,4,12.38,12.38,0,0,0,6.75-6.18,14.13,14.13,0,0,0,1.44-4,9.35,9.35,0,0,0-.19-4.84c-.66-1.89-2.7-5.1-4.64-4.75a2.58,2.58,0,0,0-1.36.75c-2,4,6,4.56,1,12-2,3-6.5,3.83-10,3a10.08,10.08,0,0,1-6-4c-.3-.44-3.38-5.12-.83-9.29,2.14-3.49,6.44-3.7,6.83-3.71a2.46,2.46,0,0,0,2.61-1.29c.27-.94-.72-2.46-2.61-2.71-1.26-.06-5.79-.14-9,3a11.17,11.17,0,0,0-2.56,4.17,8.06,8.06,0,0,0-.44,2.71Z" transform="translate(-2.6 -2.27)"/>
  </g>
  <g id="Calque_8" data-name="Calque 8">
    <path class="cls-6" d="M123,176.31s-1,2-4,0a12,12,0,0,1-2.86-2.51c-1-1.27-2.79-3.71-2.14-6.49a7.1,7.1,0,0,1,3-4,8,8,0,0,1,2-1c.16,0,2.31-.31,3-2,.07-.18,1-2-2-3-2.44-.81-8.66,3.14-10,9-1.76,7.69,6,14,9,15,.82.28,2.58.88,4,0a3.13,3.13,0,0,0,1-1v-2Z" transform="translate(-2.6 -2.27)"/>
    <path class="cls-6" d="M177.46,176.31s1,2,4,0a12.12,12.12,0,0,0,2.87-2.51c1-1.27,2.79-3.71,2.13-6.49a7.1,7.1,0,0,0-3-4,7.84,7.84,0,0,0-2-1,3.89,3.89,0,0,1-3-2c-.07-.18-1-2,2-3,2.45-.81,8.67,3.14,10,9,1.76,7.69-6,14-9,15-.81.28-2.58.88-4,0a3.23,3.23,0,0,1-1-1v-2Z" transform="translate(-2.6 -2.27)"/>
  </g>
  <g id="Calque_9" data-name="Calque 9">
    <path class="cls-6" d="M124,143.31c-2.15.8-3.67,2.28-3.47,3.69.47,3.31,4.47,3.31,4.47,3.31a2,2,0,0,1,1.68,1.56c.32,4.44-7.68,4.44-10.68-3.56-1.35-3.6,4-12,10-9C128,141.31,124.33,143.31,124,143.31Z" transform="translate(-2.6 -2.27)"/>
    <path class="cls-6" d="M130,149.31" transform="translate(-2.6 -2.27)"/>
    <path class="cls-6" d="M118,149.31s-15,4-7,16c4.22,6.34,0,5,0,5s-3,1-6-8c-1.7-5.11-1-13,11.87-17.37C125.3,142.07,118,149.31,118,149.31Z" transform="translate(-2.6 -2.27)"/>
    <path class="cls-6" d="M176.46,143.31c2.16.8,3.67,2.28,3.47,3.69-.47,3.31-4.47,3.31-4.47,3.31a2,2,0,0,0-1.68,1.56c-.32,4.44,7.68,4.44,10.68-3.56,1.36-3.6-4-12-10-9C172.46,141.31,176.13,143.31,176.46,143.31Z" transform="translate(-2.6 -2.27)"/>
    <path class="cls-6" d="M170.46,149.31" transform="translate(-2.6 -2.27)"/>
    <path class="cls-6" d="M182.46,149.31s15,4,7,16c-4.22,6.34,0,5,0,5s3,1,6-8c1.71-5.11,1-13-11.87-17.37C175.17,142.07,182.46,149.31,182.46,149.31Z" transform="translate(-2.6 -2.27)"/>
  </g>
  <g id="Calque_15" data-name="Calque 15">
    <path class="cls-6" d="M141,153.31a2.19,2.19,0,0,1,3,1,4.38,4.38,0,0,1,1,3,2.49,2.49,0,0,0,3.12,2.41,1.28,1.28,0,0,0,.88-1.25v-4.11a3.72,3.72,0,0,0-1.11-2.67,11.63,11.63,0,0,0-3.89-2.38C139,148.31,139,154.31,141,153.31Z" transform="translate(-2.6 -2.27)"/>
    <path class="cls-6" d="M159.46,153.31a2.19,2.19,0,0,0-3,1,4.38,4.38,0,0,0-1,3,2.49,2.49,0,0,1-3.12,2.41,1.28,1.28,0,0,1-.88-1.25v-4.11a3.69,3.69,0,0,1,1.12-2.67,11.54,11.54,0,0,1,3.88-2.38C161.46,148.31,161.46,154.31,159.46,153.31Z" transform="translate(-2.6 -2.27)"/>
  </g>
  <g id="Calque_11" data-name="Calque 11">
    <path class="cls-6" d="M128,129.31a5,5,0,0,1,6-3c1.54.77,3.79-.37,3.74-1.74a2,2,0,0,0-.74-1.26c-2.51-2.11-10.89-1.81-13,3-1.23,2.81-.2,6.87,2,8,.74.39,2.19.73,3,0a2,2,0,0,0,.57-1.87C129.3,131.4,127.4,131.11,128,129.31Z" transform="translate(-2.6 -2.27)"/>
    <path class="cls-6" d="M172.46,129.31a5,5,0,0,0-6-3c-1.53.77-3.79-.37-3.74-1.74a2,2,0,0,1,.74-1.26c2.52-2.11,10.89-1.81,13,3,1.24,2.81.2,6.87-2,8-.74.39-2.18.73-3,0a2,2,0,0,1-.56-1.87C171.17,131.4,173.06,131.11,172.46,129.31Z" transform="translate(-2.6 -2.27)"/>
  </g>
  <g id="Calque_12" data-name="Calque 12">
    <line class="cls-7" x1="148.72" y1="121.04" x2="148.72" y2="119.04"/>
    <line class="cls-7" x1="148.72" y1="137.63" x2="148.72" y2="128.96"/>
    <line class="cls-7" x1="148.72" y1="176.6" x2="148.72" y2="169.69"/>
    <line class="cls-7" x1="146.4" y1="119.04" x2="146.4" y2="121.04"/>
    <line class="cls-7" x1="146.4" y1="128.96" x2="146.4" y2="137.63"/>
    <line class="cls-7" x1="146.4" y1="169.69" x2="146.4" y2="176.6"/>
    <path class="cls-6" d="M149,121.92a1.77,1.77,0,0,1-.2.85,2.79,2.79,0,0,1-1.8,1.54,2.13,2.13,0,0,1-1,0,3.28,3.28,0,0,1-2-3s-1-9-9.92-8c-4.62.49-9.41,4.29-9.08,8a4.84,4.84,0,0,0,1.06,2.55,8,8,0,0,0,.63.74l-.36,3.48a1.49,1.49,0,0,1-2.66.77l-.18-.24q-.31-.41-.6-.84a14,14,0,0,1-1.73-3.49,9.51,9.51,0,0,1,1.38-8.81c3.44-4.86,10.17-8,16.46-6.16a15.94,15.94,0,0,1,9.77,10.21,5.52,5.52,0,0,1,.23,1.62Z" transform="translate(-2.6 -2.27)"/>
    <path class="cls-6" d="M113,123.31" transform="translate(-2.6 -2.27)"/>
    <path class="cls-6" d="M123.58,127.56s-9.84,2.47-11,11.59c-.63,5.16,2.25,6.53,2.25,6.53l-4,3.63s-3.45-2-2.83-10c1-13,16-18,16.42-13.41S123.58,127.56,123.58,127.56Z" transform="translate(-2.6 -2.27)"/>
    <line class="cls-7" x1="146.4" y1="119.04" x2="146.4" y2="121.04"/>
    <line class="cls-7" x1="146.4" y1="128.96" x2="146.4" y2="137.63"/>
    <line class="cls-7" x1="146.4" y1="169.69" x2="146.4" y2="176.6"/>
    <line class="cls-7" x1="148.72" y1="121.04" x2="148.72" y2="119.04"/>
    <line class="cls-7" x1="148.72" y1="137.63" x2="148.72" y2="128.96"/>
    <line class="cls-7" x1="148.72" y1="176.6" x2="148.72" y2="169.69"/>
    <line class="cls-7" x1="146.07" y1="121.3" x2="146.07" y2="119.3"/>
    <line class="cls-7" x1="146.07" y1="137.89" x2="146.07" y2="129.22"/>
    <line class="cls-7" x1="146.07" y1="176.86" x2="146.07" y2="169.95"/>
    <line class="cls-7" x1="148.4" y1="119.3" x2="148.4" y2="121.3"/>
    <line class="cls-7" x1="148.4" y1="129.22" x2="148.4" y2="137.89"/>
    <line class="cls-7" x1="148.4" y1="169.95" x2="148.4" y2="176.86"/>
    <path class="cls-6" d="M187,121.57" transform="translate(-2.6 -2.27)"/>
    <line class="cls-7" x1="148.4" y1="119.3" x2="148.4" y2="121.3"/>
    <line class="cls-7" x1="148.4" y1="129.22" x2="148.4" y2="137.89"/>
    <line class="cls-7" x1="148.4" y1="169.95" x2="148.4" y2="176.86"/>
    <line class="cls-7" x1="146.07" y1="121.3" x2="146.07" y2="119.3"/>
    <line class="cls-7" x1="146.07" y1="137.89" x2="146.07" y2="129.22"/>
    <line class="cls-7" x1="146.07" y1="176.86" x2="146.07" y2="169.95"/>
    <line class="cls-7" x1="146.54" y1="121.04" x2="146.54" y2="119.04"/>
    <line class="cls-7" x1="146.54" y1="137.63" x2="146.54" y2="128.96"/>
    <line class="cls-7" x1="146.54" y1="176.6" x2="146.54" y2="169.69"/>
    <line class="cls-7" x1="148.86" y1="119.04" x2="148.86" y2="121.04"/>
    <line class="cls-7" x1="148.86" y1="128.96" x2="148.86" y2="137.63"/>
    <line class="cls-7" x1="148.86" y1="169.69" x2="148.86" y2="176.6"/>
    <path class="cls-6" d="M151.46,121.92a1.9,1.9,0,0,0,.2.85,2.81,2.81,0,0,0,1.8,1.54,2.13,2.13,0,0,0,1,0,3.28,3.28,0,0,0,2-3s1-9,9.92-8c4.62.49,9.41,4.29,9.08,8a4.84,4.84,0,0,1-1.06,2.55,8,8,0,0,1-.63.74l.36,3.48a1.49,1.49,0,0,0,2.66.77l.18-.24q.32-.41.6-.84a14,14,0,0,0,1.73-3.49,9.51,9.51,0,0,0-1.38-8.81c-3.44-4.86-10.17-8-16.46-6.16a15.91,15.91,0,0,0-9.76,10.21,5.21,5.21,0,0,0-.24,1.62Z" transform="translate(-2.6 -2.27)"/>
    <path class="cls-6" d="M187.46,123.31" transform="translate(-2.6 -2.27)"/>
    <path class="cls-6" d="M176.88,127.56s9.85,2.47,11,11.59c.62,5.16-2.25,6.53-2.25,6.53l4,3.63s3.45-2,2.83-10c-1-13-16-18-16.41-13.41S176.88,127.56,176.88,127.56Z" transform="translate(-2.6 -2.27)"/>
    <line class="cls-7" x1="148.86" y1="119.04" x2="148.86" y2="121.04"/>
    <line class="cls-7" x1="148.86" y1="128.96" x2="148.86" y2="137.63"/>
    <line class="cls-7" x1="148.86" y1="169.69" x2="148.86" y2="176.6"/>
    <line class="cls-7" x1="146.54" y1="121.04" x2="146.54" y2="119.04"/>
    <line class="cls-7" x1="146.54" y1="137.63" x2="146.54" y2="128.96"/>
    <line class="cls-7" x1="146.54" y1="176.6" x2="146.54" y2="169.69"/>
    <line class="cls-7" x1="149.19" y1="121.3" x2="149.19" y2="119.3"/>
    <line class="cls-7" x1="149.19" y1="137.89" x2="149.19" y2="129.22"/>
    <line class="cls-7" x1="149.19" y1="176.86" x2="149.19" y2="169.95"/>
    <line class="cls-7" x1="146.86" y1="119.3" x2="146.86" y2="121.3"/>
    <line class="cls-7" x1="146.86" y1="129.22" x2="146.86" y2="137.89"/>
    <line class="cls-7" x1="146.86" y1="169.95" x2="146.86" y2="176.86"/>
    <line class="cls-7" x1="146.86" y1="119.3" x2="146.86" y2="121.3"/>
    <line class="cls-7" x1="146.86" y1="129.22" x2="146.86" y2="137.89"/>
    <line class="cls-7" x1="146.86" y1="169.95" x2="146.86" y2="176.86"/>
    <line class="cls-7" x1="149.19" y1="121.3" x2="149.19" y2="119.3"/>
    <line class="cls-7" x1="149.19" y1="137.89" x2="149.19" y2="129.22"/>
    <line class="cls-7" x1="149.19" y1="176.86" x2="149.19" y2="169.95"/>
  </g>
  <g id="Calque_19" data-name="Calque 19">
    <g id="Calque_23" data-name="Calque 23">
      <path class="cls-8" d="M145,190" transform="translate(-2.6 -2.27)"/>
    </g>
  </g>
</svg>
